<svg xmlns="http://www.w3.org/2000/svg" width="75" viewBox="0 0 75 75" height="75" version="1.0"><defs><clipPath id="a"><path d="M 1.578125 1.046875 L 72.828125 1.046875 L 72.828125 72.296875 L 1.578125 72.296875 Z M 1.578125 1.046875"/></clipPath></defs><path fill="#FFF" d="M-7.5 -7.5H82.5V82.5H-7.5z"/><path fill="#FFF" d="M-7.5 -7.5H82.5V82.5H-7.5z"/><path fill="#FFF" d="M-7.5 -7.5H82.5V82.5H-7.5z"/><path fill="#719BD8" d="M 64.515625 18.859375 L 9.890625 18.859375 C 7.265625 18.859375 5.140625 20.984375 5.140625 23.609375 L 5.140625 56.859375 C 5.140625 59.484375 7.265625 61.609375 9.890625 61.609375 L 64.515625 61.609375 C 67.140625 61.609375 69.265625 59.484375 69.265625 56.859375 L 69.265625 23.609375 C 69.265625 20.984375 67.140625 18.859375 64.515625 18.859375"/><path fill="#527AC6" d="M 64.515625 18.859375 L 62.140625 18.859375 C 64.765625 18.859375 66.890625 20.984375 66.890625 23.609375 L 66.890625 56.859375 C 66.890625 59.484375 64.765625 61.609375 62.140625 61.609375 L 64.515625 61.609375 C 67.140625 61.609375 69.265625 59.484375 69.265625 56.859375 L 69.265625 23.609375 C 69.265625 20.984375 67.140625 18.859375 64.515625 18.859375"/><path fill="#3B5BB2" d="M 9.890625 61.609375 L 2.765625 61.609375 L 2.765625 66.359375 C 2.765625 68.980469 4.894531 71.109375 7.515625 71.109375 L 66.890625 71.109375 C 69.515625 71.109375 71.640625 68.980469 71.640625 66.359375 L 71.640625 61.609375 L 9.890625 61.609375"/><path fill="#2B4DA7" d="M 69.265625 61.609375 L 69.265625 66.359375 C 69.265625 68.980469 67.140625 71.109375 64.515625 71.109375 L 66.890625 71.109375 C 69.515625 71.109375 71.640625 68.980469 71.640625 66.359375 L 71.640625 61.609375 L 69.265625 61.609375"/><path fill="#FACB07" d="M 31.265625 63.984375 C 31.265625 65.296875 32.328125 66.359375 33.640625 66.359375 L 40.765625 66.359375 C 42.078125 66.359375 43.140625 65.296875 43.140625 63.984375 L 43.140625 61.609375 L 31.265625 61.609375 L 31.265625 63.984375"/><path fill="#FCD69B" d="M 64.515625 56.859375 L 9.890625 56.859375 L 9.890625 23.609375 L 64.515625 23.609375 L 64.515625 56.859375"/><path fill="#FACB07" d="M 50.265625 2.234375 L 24.140625 2.234375 C 21.515625 2.234375 19.390625 4.359375 19.390625 6.984375 L 19.390625 20.046875 C 19.390625 22.671875 21.515625 24.796875 24.140625 24.796875 L 27.703125 24.796875 L 27.703125 33.109375 L 34.828125 24.796875 L 50.265625 24.796875 C 52.890625 24.796875 55.015625 22.671875 55.015625 20.046875 L 55.015625 6.984375 C 55.015625 4.359375 52.890625 2.234375 50.265625 2.234375"/><path fill="#FABD60" d="M 30.078125 56.859375 L 64.515625 56.859375 L 64.515625 23.609375 C 64.515625 43.300781 49.113281 56.859375 30.078125 56.859375"/><g clip-path="url(#a)"><path fill="#100F0D" d="M 70.453125 66.359375 C 70.453125 68.324219 68.855469 69.921875 66.890625 69.921875 L 7.515625 69.921875 C 5.546875 69.921875 3.953125 68.324219 3.953125 66.359375 L 3.953125 62.796875 L 30.078125 62.796875 L 30.078125 63.984375 C 30.078125 65.949219 31.671875 67.546875 33.640625 67.546875 L 40.765625 67.546875 C 42.730469 67.546875 44.328125 65.949219 44.328125 63.984375 L 44.328125 62.796875 L 70.453125 62.796875 Z M 32.453125 62.796875 L 41.953125 62.796875 L 41.953125 63.984375 C 41.953125 64.636719 41.417969 65.171875 40.765625 65.171875 L 33.640625 65.171875 C 32.988281 65.171875 32.453125 64.636719 32.453125 63.984375 Z M 6.328125 56.859375 L 6.328125 23.609375 C 6.328125 21.640625 7.921875 20.046875 9.890625 20.046875 L 18.203125 20.046875 C 18.203125 23.320312 20.867188 25.984375 24.140625 25.984375 L 26.515625 25.984375 L 26.515625 33.109375 C 26.515625 33.605469 26.828125 34.050781 27.289062 34.222656 C 27.425781 34.273438 27.5625 34.296875 27.703125 34.296875 C 28.042969 34.296875 28.375 34.152344 28.601562 33.882812 L 35.375 25.984375 L 50.265625 25.984375 C 53.539062 25.984375 56.203125 23.320312 56.203125 20.046875 L 64.515625 20.046875 C 66.480469 20.046875 68.078125 21.640625 68.078125 23.609375 L 68.078125 56.859375 C 68.078125 58.824219 66.480469 60.421875 64.515625 60.421875 L 9.890625 60.421875 C 7.921875 60.421875 6.328125 58.824219 6.328125 56.859375 Z M 20.578125 6.984375 C 20.578125 5.015625 22.171875 3.421875 24.140625 3.421875 L 50.265625 3.421875 C 52.230469 3.421875 53.828125 5.015625 53.828125 6.984375 L 53.828125 20.046875 C 53.828125 22.011719 52.230469 23.609375 50.265625 23.609375 L 34.828125 23.609375 C 34.480469 23.609375 34.152344 23.761719 33.929688 24.019531 L 28.890625 29.898438 L 28.890625 24.796875 C 28.890625 24.140625 28.355469 23.609375 27.703125 23.609375 L 24.140625 23.609375 C 22.171875 23.609375 20.578125 22.011719 20.578125 20.046875 Z M 71.640625 60.421875 L 69.234375 60.421875 C 69.988281 59.421875 70.453125 58.199219 70.453125 56.859375 L 70.453125 23.609375 C 70.453125 20.332031 67.789062 17.671875 64.515625 17.671875 L 56.203125 17.671875 L 56.203125 6.984375 C 56.203125 3.707031 53.539062 1.046875 50.265625 1.046875 L 24.140625 1.046875 C 20.867188 1.046875 18.203125 3.707031 18.203125 6.984375 L 18.203125 17.671875 L 9.890625 17.671875 C 6.617188 17.671875 3.953125 20.332031 3.953125 23.609375 L 3.953125 56.859375 C 3.953125 58.199219 4.417969 59.421875 5.167969 60.421875 L 2.765625 60.421875 C 2.113281 60.421875 1.578125 60.953125 1.578125 61.609375 L 1.578125 66.359375 C 1.578125 69.632812 4.242188 72.296875 7.515625 72.296875 L 66.890625 72.296875 C 70.164062 72.296875 72.828125 69.632812 72.828125 66.359375 L 72.828125 61.609375 C 72.828125 60.953125 72.292969 60.421875 71.640625 60.421875"/></g><path fill="#100F0D" d="M 65.703125 56.859375 L 65.703125 23.609375 C 65.703125 22.953125 65.167969 22.421875 64.515625 22.421875 L 58.578125 22.421875 C 57.925781 22.421875 57.390625 22.953125 57.390625 23.609375 C 57.390625 24.261719 57.925781 24.796875 58.578125 24.796875 L 63.328125 24.796875 L 63.328125 55.671875 L 11.078125 55.671875 L 11.078125 24.796875 L 15.828125 24.796875 C 16.480469 24.796875 17.015625 24.261719 17.015625 23.609375 C 17.015625 22.953125 16.480469 22.421875 15.828125 22.421875 L 9.890625 22.421875 C 9.238281 22.421875 8.703125 22.953125 8.703125 23.609375 L 8.703125 56.859375 C 8.703125 57.511719 9.238281 58.046875 9.890625 58.046875 L 64.515625 58.046875 C 65.167969 58.046875 65.703125 57.511719 65.703125 56.859375"/><path fill="#100F0D" d="M 15.828125 33.109375 C 15.828125 33.761719 16.363281 34.296875 17.015625 34.296875 L 19.390625 34.296875 C 20.042969 34.296875 20.578125 33.761719 20.578125 33.109375 C 20.578125 32.453125 20.042969 31.921875 19.390625 31.921875 L 17.015625 31.921875 C 16.363281 31.921875 15.828125 32.453125 15.828125 33.109375"/><path fill="#100F0D" d="M 19.390625 36.671875 L 17.015625 36.671875 C 16.363281 36.671875 15.828125 37.203125 15.828125 37.859375 C 15.828125 38.511719 16.363281 39.046875 17.015625 39.046875 L 19.390625 39.046875 C 20.042969 39.046875 20.578125 38.511719 20.578125 37.859375 C 20.578125 37.203125 20.042969 36.671875 19.390625 36.671875"/><path fill="#100F0D" d="M 19.390625 41.421875 L 17.015625 41.421875 C 16.363281 41.421875 15.828125 41.953125 15.828125 42.609375 C 15.828125 43.261719 16.363281 43.796875 17.015625 43.796875 L 19.390625 43.796875 C 20.042969 43.796875 20.578125 43.261719 20.578125 42.609375 C 20.578125 41.953125 20.042969 41.421875 19.390625 41.421875"/><path fill="#100F0D" d="M 19.390625 46.171875 L 17.015625 46.171875 C 16.363281 46.171875 15.828125 46.703125 15.828125 47.359375 C 15.828125 48.011719 16.363281 48.546875 17.015625 48.546875 L 19.390625 48.546875 C 20.042969 48.546875 20.578125 48.011719 20.578125 47.359375 C 20.578125 46.703125 20.042969 46.171875 19.390625 46.171875"/><path fill="#100F0D" d="M 19.390625 50.921875 L 17.015625 50.921875 C 16.363281 50.921875 15.828125 51.453125 15.828125 52.109375 C 15.828125 52.761719 16.363281 53.296875 17.015625 53.296875 L 19.390625 53.296875 C 20.042969 53.296875 20.578125 52.761719 20.578125 52.109375 C 20.578125 51.453125 20.042969 50.921875 19.390625 50.921875"/><path fill="#100F0D" d="M 34.828125 34.296875 L 57.390625 34.296875 C 58.042969 34.296875 58.578125 33.761719 58.578125 33.109375 C 58.578125 32.453125 58.042969 31.921875 57.390625 31.921875 L 34.828125 31.921875 C 34.175781 31.921875 33.640625 32.453125 33.640625 33.109375 C 33.640625 33.761719 34.175781 34.296875 34.828125 34.296875"/><path fill="#100F0D" d="M 33.640625 39.046875 L 52.640625 39.046875 C 53.292969 39.046875 53.828125 38.511719 53.828125 37.859375 C 53.828125 37.203125 53.292969 36.671875 52.640625 36.671875 L 33.640625 36.671875 C 32.988281 36.671875 32.453125 37.203125 32.453125 37.859375 C 32.453125 38.511719 32.988281 39.046875 33.640625 39.046875"/><path fill="#100F0D" d="M 24.140625 43.796875 L 38.390625 43.796875 C 39.042969 43.796875 39.578125 43.261719 39.578125 42.609375 C 39.578125 41.953125 39.042969 41.421875 38.390625 41.421875 L 24.140625 41.421875 C 23.488281 41.421875 22.953125 41.953125 22.953125 42.609375 C 22.953125 43.261719 23.488281 43.796875 24.140625 43.796875"/><path fill="#100F0D" d="M 24.140625 48.546875 L 38.390625 48.546875 C 39.042969 48.546875 39.578125 48.011719 39.578125 47.359375 C 39.578125 46.703125 39.042969 46.171875 38.390625 46.171875 L 24.140625 46.171875 C 23.488281 46.171875 22.953125 46.703125 22.953125 47.359375 C 22.953125 48.011719 23.488281 48.546875 24.140625 48.546875"/><path fill="#100F0D" d="M 24.140625 53.296875 L 38.390625 53.296875 C 39.042969 53.296875 39.578125 52.761719 39.578125 52.109375 C 39.578125 51.453125 39.042969 50.921875 38.390625 50.921875 L 24.140625 50.921875 C 23.488281 50.921875 22.953125 51.453125 22.953125 52.109375 C 22.953125 52.761719 23.488281 53.296875 24.140625 53.296875"/><path fill="#100F0D" d="M 23.480469 13.910156 L 30.605469 18.660156 C 30.8125 18.792969 31.039062 18.859375 31.265625 18.859375 C 31.652344 18.859375 32.027344 18.671875 32.253906 18.328125 C 32.621094 17.78125 32.472656 17.042969 31.925781 16.683594 L 26.5 13.070312 L 31.800781 10.421875 C 32.382812 10.128906 32.621094 9.414062 32.328125 8.824219 C 32.035156 8.242188 31.320312 8.003906 30.730469 8.296875 L 23.605469 11.859375 C 23.230469 12.050781 22.980469 12.425781 22.957031 12.847656 C 22.929688 13.269531 23.128906 13.671875 23.480469 13.910156"/><path fill="#100F0D" d="M 42.605469 10.421875 L 47.90625 13.070312 L 42.480469 16.683594 C 41.933594 17.042969 41.785156 17.78125 42.152344 18.328125 C 42.378906 18.671875 42.753906 18.859375 43.140625 18.859375 C 43.367188 18.859375 43.59375 18.792969 43.800781 18.660156 L 50.925781 13.910156 C 51.277344 13.671875 51.476562 13.269531 51.449219 12.847656 C 51.425781 12.425781 51.175781 12.050781 50.800781 11.859375 L 43.675781 8.296875 C 43.085938 8.003906 42.371094 8.242188 42.078125 8.824219 C 41.785156 9.414062 42.023438 10.128906 42.605469 10.421875"/><path fill="#100F0D" d="M 34.417969 21.164062 C 34.558594 21.210938 34.695312 21.234375 34.828125 21.234375 C 35.308594 21.234375 35.769531 20.933594 35.945312 20.453125 L 40.695312 7.390625 C 40.917969 6.773438 40.597656 6.09375 39.984375 5.867188 C 39.371094 5.644531 38.6875 5.964844 38.460938 6.574219 L 33.710938 19.636719 C 33.488281 20.253906 33.808594 20.9375 34.417969 21.164062"/><path fill="#100F0D" d="M 24.140625 39.046875 L 28.890625 39.046875 C 29.542969 39.046875 30.078125 38.511719 30.078125 37.859375 C 30.078125 37.203125 29.542969 36.671875 28.890625 36.671875 L 24.140625 36.671875 C 23.488281 36.671875 22.953125 37.203125 22.953125 37.859375 C 22.953125 38.511719 23.488281 39.046875 24.140625 39.046875"/><path fill="#100F0D" d="M 53.828125 42.609375 C 53.828125 41.953125 53.292969 41.421875 52.640625 41.421875 L 43.140625 41.421875 C 42.488281 41.421875 41.953125 41.953125 41.953125 42.609375 C 41.953125 43.261719 42.488281 43.796875 43.140625 43.796875 L 52.640625 43.796875 C 53.292969 43.796875 53.828125 43.261719 53.828125 42.609375"/><path fill="#100F0D" d="M 45.515625 46.171875 L 43.140625 46.171875 C 42.488281 46.171875 41.953125 46.703125 41.953125 47.359375 C 41.953125 48.011719 42.488281 48.546875 43.140625 48.546875 L 45.515625 48.546875 C 46.167969 48.546875 46.703125 48.011719 46.703125 47.359375 C 46.703125 46.703125 46.167969 46.171875 45.515625 46.171875"/><path fill="#100F0D" d="M 45.515625 50.921875 L 43.140625 50.921875 C 42.488281 50.921875 41.953125 51.453125 41.953125 52.109375 C 41.953125 52.761719 42.488281 53.296875 43.140625 53.296875 L 45.515625 53.296875 C 46.167969 53.296875 46.703125 52.761719 46.703125 52.109375 C 46.703125 51.453125 46.167969 50.921875 45.515625 50.921875"/></svg>