<svg xmlns="http://www.w3.org/2000/svg" width="810" viewBox="0 0 810 810" height="810" version="1.0"><defs><clipPath id="a"><path d="M 23.003906 43 L 789 43 L 789 728.898438 L 23.003906 728.898438 Z M 23.003906 43"/></clipPath></defs><path fill="#FFF" d="M-81 -81H891V891H-81z"/><path fill="#FFF" d="M-81 -81H891V891H-81z"/><path fill="#FFF" d="M-81 -81H891V891H-81z"/><path fill="#FEFEFE" d="M 597.902344 434.953125 C 596.371094 435.5625 594.84375 436.175781 593.464844 436.941406 C 594.382812 436.480469 595.453125 436.023438 596.371094 435.5625 C 596.679688 435.410156 596.984375 435.257812 597.289062 435.257812 C 597.441406 435.105469 597.597656 435.105469 597.902344 434.953125 Z M 682.945312 499.339844 C 673.308594 480.070312 655.414062 466.457031 636.140625 463.703125 C 626.65625 462.328125 617.175781 463.703125 608.761719 467.835938 C 597.441406 473.339844 588.878906 483.28125 584.59375 495.820312 C 579.394531 511.117188 580.925781 529.164062 588.726562 544.914062 C 598.359375 564.183594 616.257812 577.796875 635.527344 580.550781 C 637.824219 580.855469 640.117188 581.007812 642.5625 581.007812 C 649.753906 581.007812 656.636719 579.480469 662.90625 576.421875 C 674.226562 570.914062 682.789062 560.972656 687.074219 548.433594 C 692.425781 532.984375 690.898438 515.09375 682.945312 499.339844 Z M 593.3125 436.941406 C 592.242188 437.398438 591.324219 438.011719 590.253906 438.46875 L 622.984375 420.730469 C 623.902344 420.269531 624.667969 419.8125 625.585938 419.351562 C 625.738281 419.351562 625.890625 419.199219 626.046875 419.199219 C 626.964844 418.742188 628.035156 418.28125 628.953125 417.824219 C 629.257812 417.671875 629.5625 417.515625 629.867188 417.515625 C 630.632812 417.210938 631.246094 416.90625 632.011719 416.753906 C 632.316406 416.597656 632.621094 416.445312 633.082031 416.445312 C 633.847656 416.140625 634.609375 415.988281 635.222656 415.683594 C 635.527344 415.527344 635.835938 415.527344 635.988281 415.375 C 637.058594 415.070312 637.976562 414.765625 639.046875 414.457031 C 639.046875 414.457031 639.046875 414.457031 639.199219 414.457031 C 639.351562 414.457031 639.503906 414.457031 639.503906 414.304688 C 640.421875 414 641.339844 413.847656 642.257812 413.695312 C 642.5625 413.695312 642.871094 413.539062 643.175781 413.539062 C 644.09375 413.386719 644.859375 413.234375 645.777344 413.082031 C 646.082031 413.082031 646.234375 412.929688 646.539062 412.929688 C 647.613281 412.777344 648.683594 412.625 649.753906 412.46875 C 650.058594 412.46875 650.210938 412.46875 650.519531 412.46875 C 651.433594 412.316406 652.199219 412.316406 653.117188 412.316406 C 653.425781 412.316406 653.730469 412.316406 654.035156 412.316406 C 654.953125 412.316406 655.871094 412.316406 656.789062 412.316406 C 656.941406 412.316406 657.09375 412.316406 657.246094 412.316406 C 658.316406 412.316406 659.390625 412.316406 660.460938 412.316406 C 660.765625 412.316406 661.070312 412.316406 661.378906 412.316406 C 662.140625 412.316406 663.058594 412.46875 663.824219 412.46875 C 664.128906 412.46875 664.4375 412.46875 664.742188 412.625 C 665.8125 412.777344 666.882812 412.929688 668.105469 413.082031 C 669.023438 413.234375 670.09375 413.386719 671.011719 413.539062 C 668.261719 411.09375 665.507812 409.105469 662.601562 407.421875 L 64.558594 61.78125 C 43.601562 49.699219 26.625 62.546875 26.625 90.535156 L 26.625 195.296875 C 26.625 223.285156 43.601562 255.859375 64.710938 267.941406 L 561.347656 554.703125 C 539.628906 508.363281 553.699219 456.058594 593.3125 436.941406 Z M 593.3125 436.941406"/><path fill="#F4C273" d="M 698.851562 592.171875 C 699.308594 591.714844 699.921875 591.101562 700.378906 590.644531 C 700.6875 590.335938 700.992188 590.03125 701.144531 589.726562 C 701.605469 589.265625 702.0625 588.65625 702.367188 588.195312 C 702.675781 587.890625 702.980469 587.433594 703.285156 587.125 C 703.746094 586.667969 704.050781 586.054688 704.511719 585.597656 C 704.816406 585.289062 705.121094 584.832031 705.273438 584.527344 C 705.582031 584.066406 706.039062 583.457031 706.34375 582.996094 C 706.652344 582.539062 706.804688 582.230469 707.109375 581.773438 C 707.414062 581.3125 707.722656 580.703125 708.179688 580.242188 C 708.488281 579.785156 708.640625 579.480469 708.945312 579.019531 C 709.25 578.410156 709.558594 577.949219 709.863281 577.339844 C 710.015625 576.878906 710.320312 576.574219 710.476562 576.113281 C 710.78125 575.503906 711.085938 574.890625 711.394531 574.277344 C 711.546875 573.972656 711.699219 573.515625 712.003906 573.207031 C 712.308594 572.445312 712.769531 571.679688 713.074219 570.914062 C 713.226562 570.609375 713.226562 570.457031 713.382812 570.148438 C 713.839844 569.078125 714.300781 568.160156 714.605469 567.089844 C 714.757812 566.785156 714.757812 566.632812 714.910156 566.328125 C 715.214844 565.5625 715.523438 564.796875 715.828125 564.03125 C 715.980469 563.574219 716.132812 563.269531 716.289062 562.808594 C 716.441406 562.195312 716.746094 561.433594 716.898438 560.820312 C 717.050781 560.363281 717.203125 559.902344 717.203125 559.445312 C 717.359375 558.832031 717.511719 558.21875 717.664062 557.457031 C 717.816406 556.996094 717.96875 556.539062 717.96875 556.078125 C 718.121094 555.46875 718.277344 554.855469 718.429688 554.089844 C 718.582031 553.632812 718.582031 553.171875 718.734375 552.714844 C 718.886719 552.101562 719.039062 551.492188 719.039062 550.726562 C 719.195312 550.269531 719.195312 549.808594 719.347656 549.351562 C 719.5 548.738281 719.5 547.972656 719.652344 547.363281 C 719.652344 546.902344 719.804688 546.445312 719.804688 545.984375 C 719.957031 545.222656 719.957031 544.609375 720.109375 543.84375 C 720.109375 543.386719 720.265625 542.925781 720.265625 542.46875 C 720.265625 541.703125 720.417969 540.9375 720.417969 540.175781 C 720.417969 539.714844 720.417969 539.410156 720.417969 539.101562 C 720.417969 537.878906 720.570312 536.808594 720.570312 535.585938 C 720.570312 534.363281 720.570312 533.292969 720.570312 532.066406 C 720.570312 531.609375 720.570312 531.304688 720.570312 530.84375 C 720.570312 530.082031 720.570312 529.316406 720.417969 528.398438 C 720.417969 527.9375 720.417969 527.480469 720.265625 527.019531 C 720.265625 526.257812 720.109375 525.492188 720.109375 524.878906 C 720.109375 524.421875 719.957031 523.960938 719.957031 523.351562 C 719.957031 522.585938 719.804688 521.972656 719.652344 521.210938 C 719.652344 520.75 719.5 520.140625 719.5 519.679688 C 719.347656 518.914062 719.347656 518.304688 719.195312 517.539062 C 719.039062 517.082031 719.039062 516.46875 718.886719 516.011719 C 718.734375 515.246094 718.582031 514.632812 718.429688 513.867188 C 718.277344 513.410156 718.277344 512.796875 718.121094 512.339844 C 717.96875 511.574219 717.816406 510.960938 717.664062 510.199219 C 717.511719 509.738281 717.359375 509.28125 717.359375 508.667969 C 717.203125 507.902344 716.898438 507.140625 716.746094 506.375 C 716.59375 505.914062 716.441406 505.457031 716.441406 505 C 716.132812 504.082031 715.828125 503.164062 715.675781 502.246094 C 715.523438 501.941406 715.523438 501.632812 715.371094 501.328125 C 714.910156 500.105469 714.605469 498.878906 714.144531 497.65625 C 714.144531 497.503906 713.992188 497.351562 713.992188 497.199219 C 713.6875 496.28125 713.226562 495.210938 712.921875 494.292969 C 712.769531 493.988281 712.617188 493.527344 712.464844 493.222656 C 712.15625 492.457031 711.699219 491.539062 711.394531 490.773438 C 711.238281 490.46875 711.085938 490.164062 710.933594 489.703125 C 710.476562 488.632812 709.863281 487.410156 709.40625 486.339844 C 708.945312 485.269531 708.332031 484.351562 707.875 483.433594 C 707.875 483.433594 707.875 483.28125 707.722656 483.28125 C 706.652344 481.445312 705.582031 479.457031 704.511719 477.621094 C 704.511719 477.46875 704.355469 477.46875 704.355469 477.316406 C 703.285156 475.480469 702.0625 473.796875 700.992188 472.117188 C 700.839844 471.964844 700.839844 471.964844 700.6875 471.808594 C 699.617188 470.28125 698.390625 468.75 697.167969 467.222656 C 697.167969 467.222656 697.015625 467.070312 697.015625 467.070312 C 695.792969 465.539062 694.566406 464.011719 693.34375 462.632812 C 691.96875 461.105469 690.589844 459.726562 689.214844 458.199219 C 689.214844 458.199219 689.214844 458.199219 689.0625 458.046875 C 687.683594 456.667969 686.308594 455.292969 684.777344 454.070312 C 684.777344 454.070312 684.625 453.917969 684.625 453.917969 C 683.859375 453.152344 683.097656 452.539062 682.179688 451.777344 C 682.027344 451.621094 681.871094 451.621094 681.71875 451.46875 C 681.109375 450.859375 680.34375 450.398438 679.730469 449.789062 C 679.425781 449.480469 679.121094 449.328125 678.8125 449.175781 C 678.355469 448.71875 677.742188 448.410156 677.285156 447.953125 C 676.976562 447.644531 676.671875 447.492188 676.214844 447.1875 C 675.753906 446.882812 675.144531 446.421875 674.683594 446.117188 C 674.378906 445.964844 674.074219 445.65625 673.765625 445.503906 C 673 445.046875 672.238281 444.433594 671.472656 443.976562 C 671.167969 443.824219 670.859375 443.667969 670.554688 443.363281 C 669.484375 442.753906 668.566406 442.140625 667.496094 441.527344 C 667.496094 441.527344 667.496094 441.527344 667.34375 441.527344 C 666.273438 440.917969 665.355469 440.457031 664.285156 439.847656 C 663.976562 439.695312 663.671875 439.539062 663.367188 439.386719 C 662.601562 438.929688 661.683594 438.621094 660.917969 438.164062 C 660.613281 438.011719 660.304688 437.859375 660 437.707031 C 659.390625 437.398438 658.625 437.09375 657.859375 436.789062 C 657.554688 436.632812 657.402344 436.480469 657.09375 436.480469 C 656.175781 436.023438 655.257812 435.71875 654.1875 435.257812 C 654.035156 435.105469 653.730469 435.105469 653.578125 435.105469 C 652.8125 434.800781 652.046875 434.492188 651.28125 434.339844 C 650.976562 434.1875 650.671875 434.035156 650.210938 434.035156 C 649.601562 433.882812 648.988281 433.574219 648.375 433.421875 C 648.070312 433.269531 647.613281 433.117188 647.304688 433.117188 C 646.695312 432.964844 646.082031 432.8125 645.46875 432.660156 C 645.011719 432.503906 644.707031 432.503906 644.246094 432.351562 C 643.632812 432.199219 643.023438 432.046875 642.410156 431.894531 C 642.105469 431.742188 641.644531 431.742188 641.339844 431.585938 C 640.730469 431.433594 639.964844 431.28125 639.351562 431.128906 C 639.046875 431.128906 638.742188 430.976562 638.433594 430.976562 C 637.515625 430.824219 636.445312 430.671875 635.527344 430.515625 C 634.457031 430.363281 633.386719 430.210938 632.164062 430.058594 C 631.855469 430.058594 631.550781 430.058594 631.246094 429.90625 C 630.328125 429.90625 629.5625 429.753906 628.644531 429.753906 C 628.339844 429.753906 628.035156 429.753906 627.726562 429.753906 C 626.65625 429.753906 625.585938 429.753906 624.515625 429.753906 C 624.363281 429.753906 624.210938 429.753906 624.058594 429.753906 C 623.140625 429.753906 622.222656 429.753906 621.304688 429.753906 C 620.996094 429.753906 620.691406 429.753906 620.386719 429.753906 C 619.46875 429.753906 618.703125 429.90625 617.785156 429.90625 C 617.480469 429.90625 617.328125 429.90625 617.019531 429.90625 C 615.949219 430.058594 614.878906 430.210938 613.808594 430.363281 C 613.503906 430.363281 613.351562 430.515625 613.042969 430.515625 C 612.125 430.671875 611.363281 430.824219 610.445312 430.976562 C 610.136719 430.976562 609.832031 431.128906 609.527344 431.128906 C 608.609375 431.28125 607.691406 431.585938 606.773438 431.742188 C 606.621094 431.742188 606.46875 431.742188 606.3125 431.894531 C 605.242188 432.199219 604.324219 432.503906 603.253906 432.8125 C 602.949219 432.964844 602.644531 432.964844 602.492188 433.117188 C 601.726562 433.421875 600.960938 433.574219 600.347656 433.882812 C 600.042969 434.035156 599.738281 434.1875 599.277344 434.1875 C 598.515625 434.492188 597.902344 434.800781 597.136719 434.953125 C 596.832031 435.105469 596.523438 435.257812 596.21875 435.257812 C 595.300781 435.71875 594.230469 436.175781 593.3125 436.632812 C 592.242188 437.09375 591.324219 437.707031 590.253906 438.164062 L 622.984375 420.421875 C 623.902344 419.964844 624.667969 419.503906 625.585938 419.046875 C 625.738281 419.046875 625.890625 418.894531 626.046875 418.894531 C 626.960938 418.433594 628.035156 417.976562 628.953125 417.515625 C 629.257812 417.363281 629.5625 417.210938 629.867188 417.210938 C 630.632812 416.90625 631.246094 416.601562 632.011719 416.445312 C 632.316406 416.292969 632.621094 416.140625 633.082031 416.140625 C 633.84375 415.835938 634.609375 415.683594 635.222656 415.375 C 635.527344 415.222656 635.835938 415.222656 635.988281 415.070312 C 637.058594 414.765625 637.976562 414.457031 639.046875 414.152344 C 639.046875 414.152344 639.046875 414.152344 639.199219 414.152344 C 639.351562 414.152344 639.503906 414.152344 639.503906 414 C 640.421875 413.695312 641.339844 413.539062 642.257812 413.386719 C 642.5625 413.386719 642.871094 413.234375 643.175781 413.234375 C 644.09375 413.082031 644.859375 412.929688 645.777344 412.777344 C 646.082031 412.777344 646.234375 412.625 646.539062 412.625 C 647.613281 412.46875 648.683594 412.316406 649.753906 412.164062 C 650.058594 412.164062 650.210938 412.164062 650.515625 412.164062 C 651.433594 412.011719 652.199219 412.011719 653.117188 412.011719 C 653.421875 412.011719 653.730469 412.011719 654.035156 412.011719 C 654.953125 412.011719 655.871094 412.011719 656.789062 412.011719 C 656.941406 412.011719 657.09375 412.011719 657.246094 412.011719 C 658.316406 412.011719 659.390625 412.011719 660.460938 412.011719 C 660.765625 412.011719 661.070312 412.011719 661.378906 412.011719 C 662.140625 412.011719 663.058594 412.164062 663.824219 412.164062 C 664.128906 412.164062 664.4375 412.164062 664.742188 412.316406 C 665.8125 412.46875 666.882812 412.625 668.105469 412.777344 C 669.023438 412.929688 670.09375 413.082031 671.011719 413.234375 C 671.320312 413.234375 671.625 413.386719 671.929688 413.386719 C 672.542969 413.539062 673.308594 413.695312 673.917969 413.847656 C 674.226562 414 674.683594 414 674.988281 414.152344 C 675.601562 414.304688 676.214844 414.457031 676.824219 414.613281 C 677.285156 414.765625 677.589844 414.765625 678.050781 414.917969 C 678.660156 415.070312 679.273438 415.222656 679.882812 415.375 C 680.191406 415.527344 680.648438 415.527344 680.957031 415.683594 C 681.566406 415.835938 682.179688 416.140625 682.789062 416.292969 C 683.097656 416.445312 683.554688 416.445312 683.859375 416.601562 C 684.625 416.90625 685.390625 417.210938 686.15625 417.515625 C 686.308594 417.515625 686.613281 417.671875 686.765625 417.671875 C 687.683594 417.976562 688.753906 418.433594 689.671875 418.894531 C 689.980469 419.046875 690.132812 419.046875 690.4375 419.199219 C 691.203125 419.503906 691.816406 419.8125 692.578125 420.117188 C 692.734375 420.117188 692.734375 420.269531 692.886719 420.269531 C 693.039062 420.421875 693.191406 420.421875 693.496094 420.578125 C 694.261719 421.035156 695.179688 421.339844 695.945312 421.800781 C 696.25 421.953125 696.554688 422.105469 696.863281 422.257812 C 697.933594 422.71875 698.851562 423.328125 699.921875 423.941406 C 699.921875 423.941406 699.921875 423.941406 700.074219 423.941406 C 701.144531 424.550781 702.0625 425.164062 703.132812 425.777344 C 703.4375 425.929688 703.746094 426.082031 704.050781 426.386719 C 704.816406 426.847656 705.582031 427.457031 706.34375 427.917969 C 706.5 428.070312 706.652344 428.222656 706.957031 428.222656 C 707.109375 428.222656 707.109375 428.375 707.261719 428.527344 C 707.722656 428.835938 708.332031 429.292969 708.792969 429.597656 C 709.097656 429.90625 709.40625 430.058594 709.863281 430.363281 C 710.476562 430.824219 710.933594 431.128906 711.546875 431.585938 C 711.851562 431.742188 712.15625 432.046875 712.464844 432.199219 C 713.226562 432.8125 713.839844 433.269531 714.453125 433.882812 C 714.605469 434.035156 714.757812 434.035156 714.757812 434.1875 C 715.523438 434.800781 716.289062 435.5625 717.203125 436.328125 C 717.203125 436.328125 717.359375 436.480469 717.359375 436.480469 C 718.734375 437.707031 720.265625 439.082031 721.640625 440.457031 C 721.640625 440.457031 721.640625 440.457031 721.792969 440.609375 C 723.171875 441.988281 724.546875 443.515625 725.921875 445.046875 C 727.148438 446.574219 728.523438 447.953125 729.746094 449.480469 C 729.746094 449.480469 729.898438 449.632812 729.898438 449.632812 C 731.125 451.164062 732.195312 452.691406 733.417969 454.222656 C 733.417969 454.375 733.570312 454.375 733.570312 454.527344 C 733.570312 454.527344 733.570312 454.527344 733.570312 454.679688 C 734.792969 456.363281 735.863281 458.046875 736.9375 459.882812 C 736.9375 460.035156 737.089844 460.035156 737.089844 460.1875 C 738.160156 462.023438 739.230469 463.859375 740.300781 465.847656 C 740.300781 465.847656 740.300781 465.847656 740.300781 466 C 740.757812 466.917969 741.371094 467.988281 741.832031 468.90625 C 742.441406 469.976562 742.902344 471.199219 743.359375 472.269531 C 743.511719 472.574219 743.664062 472.882812 743.820312 473.339844 C 744.125 474.105469 744.582031 475.023438 744.890625 475.789062 C 745.042969 476.09375 745.195312 476.550781 745.347656 476.859375 C 745.808594 477.773438 746.113281 478.847656 746.417969 479.761719 C 746.417969 479.917969 746.570312 480.070312 746.570312 480.222656 C 746.570312 480.222656 746.570312 480.222656 746.570312 480.375 C 747.03125 481.597656 747.335938 482.667969 747.796875 483.894531 C 747.949219 484.199219 747.949219 484.503906 748.101562 484.808594 C 748.40625 485.726562 748.714844 486.644531 748.867188 487.5625 C 749.019531 488.023438 749.171875 488.480469 749.171875 488.941406 C 749.324219 489.703125 749.632812 490.46875 749.785156 491.234375 C 749.9375 491.691406 750.089844 492.152344 750.089844 492.761719 C 750.242188 493.527344 750.394531 494.140625 750.546875 494.90625 C 750.703125 495.363281 750.703125 495.976562 750.855469 496.433594 C 751.007812 497.199219 751.160156 497.808594 751.3125 498.574219 C 751.464844 499.035156 751.464844 499.644531 751.621094 500.105469 C 751.773438 500.867188 751.773438 501.480469 751.925781 502.246094 C 751.925781 502.703125 752.078125 503.316406 752.078125 503.773438 C 752.230469 504.539062 752.230469 505.152344 752.382812 505.914062 C 752.382812 506.375 752.539062 506.988281 752.539062 507.445312 C 752.539062 508.210938 752.691406 508.976562 752.691406 509.585938 C 752.691406 510.046875 752.691406 510.503906 752.84375 510.964844 C 752.84375 511.726562 752.84375 512.492188 752.996094 513.410156 C 752.996094 513.867188 752.996094 514.175781 752.996094 514.632812 C 752.996094 515.855469 752.996094 516.925781 752.996094 518.152344 C 752.996094 519.375 752.996094 520.445312 752.84375 521.667969 C 752.84375 522.128906 752.84375 522.433594 752.84375 522.738281 C 752.84375 523.503906 752.691406 524.269531 752.691406 525.035156 C 752.691406 525.492188 752.539062 525.949219 752.539062 526.410156 C 752.539062 527.175781 752.382812 527.785156 752.230469 528.550781 C 752.230469 529.007812 752.078125 529.46875 752.078125 529.925781 C 751.925781 530.539062 751.925781 531.304688 751.773438 531.914062 C 751.621094 532.375 751.621094 532.832031 751.464844 533.292969 C 751.3125 533.902344 751.160156 534.515625 751.160156 535.28125 C 751.007812 535.738281 751.007812 536.199219 750.855469 536.65625 C 750.703125 537.269531 750.546875 537.878906 750.394531 538.644531 C 750.242188 539.101562 750.242188 539.5625 750.089844 540.019531 C 749.9375 540.632812 749.785156 541.246094 749.632812 542.007812 C 749.476562 542.46875 749.324219 542.925781 749.324219 543.386719 C 749.171875 543.996094 748.867188 544.761719 748.714844 545.375 C 748.558594 545.832031 748.40625 546.136719 748.253906 546.597656 C 747.949219 547.363281 747.644531 548.125 747.335938 548.890625 C 747.183594 549.199219 747.183594 549.351562 747.03125 549.65625 C 746.570312 550.726562 746.265625 551.644531 745.808594 552.714844 C 745.652344 553.019531 745.5 553.171875 745.5 553.480469 C 745.195312 554.246094 744.890625 555.007812 744.429688 555.773438 C 744.277344 556.078125 744.125 556.539062 743.820312 556.84375 C 743.511719 557.457031 743.207031 558.066406 742.902344 558.679688 C 742.75 559.136719 742.441406 559.445312 742.289062 559.902344 C 741.984375 560.515625 741.675781 560.972656 741.371094 561.585938 C 741.066406 562.042969 740.914062 562.351562 740.605469 562.808594 C 740.300781 563.421875 739.996094 563.878906 739.535156 564.339844 C 739.230469 564.796875 739.078125 565.101562 738.769531 565.5625 C 738.464844 566.019531 738.007812 566.632812 737.699219 567.089844 C 737.394531 567.398438 737.089844 567.855469 736.9375 568.160156 C 736.628906 568.621094 736.171875 569.230469 735.710938 569.691406 C 735.40625 569.996094 735.101562 570.457031 734.792969 570.761719 C 734.335938 571.21875 733.875 571.832031 733.570312 572.292969 C 733.265625 572.597656 732.960938 572.902344 732.804688 573.207031 C 732.347656 573.820312 731.886719 574.28125 731.277344 574.738281 C 730.972656 575.042969 730.816406 575.195312 730.511719 575.503906 C 729.746094 576.265625 728.980469 577.03125 728.21875 577.796875 L 784.808594 691.125 L 752.078125 708.867188 L 695.484375 595.539062 C 696.25 594.773438 697.015625 594.007812 697.78125 593.242188 C 698.390625 592.632812 698.542969 592.480469 698.851562 592.171875 Z M 698.851562 592.171875"/><path fill="#A8B875" d="M 635.679688 430.667969 C 664.894531 434.800781 693.496094 455.140625 709.25 486.644531 C 728.980469 526.105469 722.40625 570.457031 695.945312 595.230469 L 752.535156 708.558594 L 717.816406 725.382812 L 661.683594 612.820312 C 653.421875 614.503906 644.859375 614.65625 636.292969 613.429688 C 607.078125 609.300781 578.476562 588.960938 562.722656 557.457031 C 539.167969 510.503906 553.085938 456.515625 593.464844 436.941406 C 606.621094 430.515625 621.304688 428.527344 635.679688 430.667969 Z M 591.171875 543.691406 C 600.808594 562.960938 618.09375 575.351562 635.988281 577.796875 C 644.707031 579.019531 653.578125 577.796875 661.683594 573.972656 C 686.308594 562.042969 694.722656 529.164062 680.496094 500.5625 C 670.859375 481.292969 653.578125 468.90625 635.679688 466.457031 C 626.964844 465.234375 618.089844 466.457031 609.984375 470.28125 C 585.359375 482.058594 576.949219 514.9375 591.171875 543.691406"/><g clip-path="url(#a)"><path d="M 788.632812 691.890625 L 731.734375 577.949219 C 732.042969 577.644531 732.347656 577.339844 732.652344 577.03125 L 733.417969 576.265625 C 733.875 575.65625 734.488281 575.195312 734.949219 574.585938 L 735.863281 573.515625 C 736.324219 573.054688 736.628906 572.597656 737.089844 572.136719 L 738.007812 571.066406 C 738.464844 570.609375 738.769531 569.996094 739.230469 569.539062 C 739.535156 569.078125 739.84375 568.773438 740.148438 568.316406 C 740.453125 567.855469 740.914062 567.242188 741.21875 566.785156 L 741.984375 565.5625 C 742.289062 564.949219 742.746094 564.492188 743.054688 563.726562 L 743.664062 562.65625 C 743.972656 562.042969 744.277344 561.433594 744.738281 560.667969 L 745.347656 559.597656 C 745.652344 558.984375 745.960938 558.375 746.265625 557.609375 L 746.878906 556.539062 C 747.183594 555.773438 747.640625 555.007812 747.949219 554.246094 L 748.253906 553.480469 C 748.714844 552.410156 749.171875 551.339844 749.476562 550.269531 L 749.785156 549.503906 C 750.089844 548.738281 750.394531 547.972656 750.703125 547.054688 L 751.160156 545.832031 C 751.3125 545.066406 751.621094 544.457031 751.773438 543.691406 L 752.230469 542.316406 C 752.382812 541.703125 752.535156 540.9375 752.84375 540.328125 L 753.148438 538.949219 C 753.300781 538.339844 753.453125 537.574219 753.609375 536.960938 L 753.914062 535.433594 C 754.066406 534.820312 754.21875 534.054688 754.21875 533.445312 L 754.527344 531.914062 C 754.679688 531.304688 754.679688 530.539062 754.832031 529.925781 L 754.984375 528.398438 C 755.136719 527.632812 755.136719 527.019531 755.289062 526.257812 L 755.289062 525.949219 L 755.441406 524.878906 C 755.441406 524.117188 755.597656 523.351562 755.597656 522.433594 L 755.75 521.210938 C 755.75 519.984375 755.902344 518.761719 755.902344 517.539062 C 755.902344 516.316406 755.902344 515.09375 755.902344 513.867188 L 755.902344 512.644531 C 755.902344 511.878906 755.902344 510.960938 755.75 510.199219 L 755.597656 508.820312 C 755.597656 508.058594 755.441406 507.292969 755.441406 506.527344 L 755.289062 505 C 755.289062 504.234375 755.136719 503.621094 754.984375 502.855469 L 754.832031 501.328125 C 754.679688 500.5625 754.679688 499.949219 754.527344 499.1875 L 754.21875 497.65625 C 754.066406 496.890625 753.914062 496.28125 753.761719 495.363281 L 753.453125 493.832031 C 753.300781 493.070312 753.148438 492.304688 752.996094 491.691406 L 752.691406 490.164062 C 752.535156 489.398438 752.230469 488.632812 752.078125 487.867188 L 751.773438 486.492188 C 751.464844 485.574219 751.160156 484.65625 750.855469 483.738281 L 750.546875 482.820312 C 750.089844 481.597656 749.785156 480.375 749.324219 479.152344 L 749.171875 478.691406 C 748.867188 477.621094 748.40625 476.703125 747.949219 475.632812 L 747.488281 474.5625 C 747.183594 473.796875 746.726562 472.882812 746.417969 472.117188 L 745.960938 471.046875 C 745.5 469.824219 744.890625 468.75 744.277344 467.679688 C 743.820312 466.609375 743.207031 465.691406 742.75 464.773438 L 742.59375 464.46875 C 741.523438 462.480469 740.453125 460.644531 739.382812 458.8125 L 739.230469 458.503906 C 738.160156 456.667969 736.9375 454.835938 735.710938 453 L 735.558594 452.691406 C 734.488281 451.011719 733.265625 449.480469 731.886719 447.800781 C 730.664062 446.269531 729.289062 444.742188 728.066406 443.210938 C 726.6875 441.679688 725.3125 440.152344 723.78125 438.621094 C 722.40625 437.246094 720.875 435.871094 719.5 434.492188 L 719.195312 434.339844 C 718.886719 434.035156 718.429688 433.730469 718.121094 433.421875 C 710.933594 416.292969 699.460938 401.152344 686.460938 393.660156 L 87.957031 48.324219 C 78.167969 42.664062 68.535156 41.898438 60.734375 46.183594 L 41.613281 55.96875 C 40.542969 56.429688 39.472656 56.886719 38.402344 57.5 C 29.226562 62.851562 23.871094 74.78125 23.871094 90.535156 L 23.871094 195.296875 C 23.871094 224.203125 41.613281 257.847656 63.332031 270.390625 L 559.207031 556.691406 C 559.511719 557.304688 559.816406 558.066406 560.121094 558.679688 C 575.570312 589.726562 604.632812 611.75 635.679688 616.183594 C 643.941406 617.40625 652.046875 617.253906 660 615.878906 L 716.441406 728.898438 L 751.160156 712.078125 L 751.160156 712.230469 L 753.609375 711.007812 L 756.054688 709.78125 L 756.054688 709.628906 Z M 747.796875 493.222656 C 747.949219 493.832031 748.101562 494.597656 748.253906 495.363281 L 748.558594 496.890625 C 748.714844 497.503906 748.867188 498.269531 749.019531 498.878906 L 749.324219 500.410156 C 749.476562 501.023438 749.476562 501.785156 749.632812 502.398438 L 749.785156 503.925781 C 749.9375 504.539062 749.9375 505.304688 750.089844 506.070312 L 750.089844 506.222656 L 723.324219 532.832031 C 723.324219 532.527344 723.324219 532.222656 723.324219 531.914062 L 723.324219 530.691406 C 723.324219 529.925781 723.324219 529.007812 723.171875 528.246094 L 723.015625 526.867188 C 723.015625 526.105469 722.863281 525.339844 722.863281 524.574219 L 722.710938 523.042969 C 722.558594 522.28125 722.558594 521.667969 722.40625 520.902344 L 722.253906 519.375 C 722.253906 519.222656 722.253906 519.070312 722.097656 518.914062 Z M 722.097656 549.808594 C 722.253906 549.199219 722.253906 548.433594 722.40625 547.667969 L 722.558594 546.292969 C 722.558594 545.984375 722.558594 545.679688 722.710938 545.375 C 722.710938 544.914062 722.863281 544.609375 722.863281 544.148438 L 723.015625 542.773438 C 723.015625 542.007812 723.171875 541.246094 723.171875 540.328125 L 723.324219 539.101562 C 723.324219 537.878906 723.476562 536.65625 723.476562 535.433594 C 723.476562 534.820312 723.476562 534.363281 723.476562 533.75 L 750.242188 506.984375 L 750.242188 507.140625 C 750.242188 507.902344 750.394531 508.515625 750.394531 509.28125 L 750.546875 510.65625 C 750.546875 511.421875 750.546875 512.1875 750.703125 512.949219 L 750.703125 514.023438 C 750.703125 515.246094 750.703125 516.316406 750.703125 517.386719 C 750.703125 518.457031 750.703125 519.679688 750.546875 520.75 L 750.546875 521.667969 L 722.097656 550.113281 Z M 718.277344 564.796875 L 718.734375 563.574219 C 718.886719 562.808594 719.191406 562.195312 719.347656 561.433594 L 719.804688 560.054688 C 719.804688 559.902344 719.804688 559.902344 719.804688 559.75 C 719.957031 559.445312 719.957031 559.136719 720.109375 558.832031 C 720.265625 558.527344 720.265625 558.21875 720.417969 557.914062 L 720.722656 556.539062 C 720.875 555.925781 721.027344 555.160156 721.183594 554.550781 L 721.488281 553.019531 C 721.488281 552.867188 721.640625 552.5625 721.640625 552.410156 C 721.640625 552.410156 721.640625 552.257812 721.640625 552.257812 C 721.640625 552.101562 721.792969 551.796875 721.792969 551.644531 L 750.394531 523.042969 C 750.394531 523.503906 750.394531 523.960938 750.242188 524.269531 L 750.089844 525.644531 C 750.089844 526.257812 749.9375 527.019531 749.9375 527.632812 L 749.785156 529.007812 C 749.632812 529.621094 749.632812 530.386719 749.476562 530.996094 L 749.171875 532.375 C 749.019531 532.984375 748.867188 533.597656 748.867188 534.210938 L 748.558594 535.585938 C 748.40625 536.199219 748.253906 536.808594 748.101562 537.421875 L 747.796875 538.796875 C 747.640625 539.410156 747.488281 540.019531 747.335938 540.632812 L 747.183594 541.398438 L 714.453125 574.125 C 714.605469 573.972656 714.605469 573.667969 714.757812 573.515625 C 714.910156 573.054688 715.214844 572.75 715.371094 572.292969 C 715.371094 572.136719 715.523438 572.136719 715.523438 571.984375 L 715.828125 571.21875 C 716.289062 570.148438 716.746094 569.078125 717.203125 568.007812 L 717.511719 567.242188 C 717.511719 567.089844 717.664062 566.9375 717.664062 566.9375 C 717.816406 566.632812 717.96875 566.171875 718.121094 565.867188 C 717.96875 565.410156 718.121094 565.101562 718.277344 564.796875 Z M 745.808594 545.222656 C 745.5 545.984375 745.195312 546.75 745.042969 547.515625 L 744.738281 548.28125 C 744.277344 549.351562 743.972656 550.269531 743.511719 551.183594 L 743.207031 551.949219 C 742.902344 552.714844 742.59375 553.480469 742.136719 554.089844 L 741.523438 555.316406 C 741.21875 555.925781 740.914062 556.386719 740.605469 556.996094 L 739.996094 558.066406 C 739.6875 558.679688 739.382812 559.136719 739.078125 559.75 L 738.3125 560.820312 C 738.007812 561.28125 737.699219 561.890625 737.394531 562.351562 L 736.628906 563.421875 C 736.324219 563.878906 735.863281 564.492188 735.558594 564.949219 C 735.253906 565.257812 735.101562 565.714844 734.792969 566.019531 C 734.488281 566.480469 734.03125 566.9375 733.722656 567.398438 L 732.957031 568.46875 C 732.652344 568.925781 732.195312 569.386719 731.734375 569.84375 L 730.96875 570.761719 C 730.511719 571.21875 730.054688 571.832031 729.59375 572.292969 L 728.828125 573.054688 C 728.21875 573.667969 727.453125 574.433594 726.839844 575.042969 L 707.722656 585.445312 C 707.722656 585.445312 707.722656 585.289062 707.875 585.289062 C 708.027344 584.984375 708.332031 584.679688 708.488281 584.375 C 708.488281 584.21875 708.640625 584.21875 708.640625 584.066406 C 708.945312 583.609375 709.25 583.300781 709.40625 582.84375 C 709.710938 582.230469 710.167969 581.773438 710.476562 581.007812 L 711.085938 579.9375 C 711.238281 579.785156 711.394531 579.480469 711.546875 579.324219 C 711.699219 579.019531 712.003906 578.5625 712.15625 578.253906 C 712.15625 578.253906 712.15625 578.101562 712.308594 578.101562 L 712.921875 577.03125 C 713.074219 576.726562 713.226562 576.421875 713.382812 576.265625 L 746.570312 543.078125 C 746.417969 543.386719 746.417969 543.691406 746.265625 543.996094 Z M 744.125 481.292969 C 744.582031 482.363281 744.890625 483.585938 745.347656 484.65625 L 745.652344 485.574219 C 745.960938 486.492188 746.265625 487.410156 746.417969 488.175781 L 746.726562 489.550781 C 746.878906 490.316406 747.183594 491.082031 747.335938 491.84375 L 747.488281 492.457031 L 721.945312 517.996094 C 721.945312 517.84375 721.945312 517.539062 721.792969 517.386719 L 721.488281 515.855469 C 721.335938 515.09375 721.183594 514.480469 721.027344 513.714844 L 720.722656 512.1875 C 720.570312 511.421875 720.417969 510.65625 720.109375 509.738281 L 719.804688 508.515625 C 719.652344 507.75 719.347656 506.984375 719.191406 506.222656 L 719.039062 505.761719 L 743.820312 480.988281 L 743.972656 481.292969 Z M 742.441406 476.703125 L 742.902344 477.773438 C 743.207031 478.386719 743.511719 479.152344 743.664062 479.761719 L 733.417969 490.011719 L 719.039062 504.386719 C 718.734375 503.46875 718.429688 502.550781 718.121094 501.632812 L 717.816406 500.714844 C 717.359375 499.492188 717.050781 498.269531 716.59375 497.046875 L 716.441406 496.585938 C 716.132812 495.515625 715.675781 494.597656 715.214844 493.527344 L 715.0625 493.222656 L 738.925781 469.363281 C 739.078125 469.667969 739.230469 469.820312 739.382812 470.128906 C 739.996094 471.199219 740.453125 472.269531 740.914062 473.339844 L 741.371094 474.257812 C 741.675781 475.175781 742.136719 475.941406 742.441406 476.703125 Z M 734.640625 461.5625 C 735.710938 463.246094 736.78125 465.082031 737.855469 467.070312 L 737.855469 467.222656 C 738.160156 467.679688 738.3125 468.140625 738.617188 468.597656 L 714.757812 492.457031 C 714.453125 491.691406 713.992188 490.773438 713.6875 490.011719 L 713.226562 488.941406 C 712.769531 487.714844 712.15625 486.644531 711.546875 485.574219 C 711.085938 484.503906 710.476562 483.585938 709.863281 482.363281 L 732.960938 459.269531 C 733.417969 460.035156 734.03125 460.796875 734.488281 461.5625 Z M 731.125 456.210938 C 731.582031 456.824219 732.042969 457.585938 732.5 458.351562 L 709.40625 481.445312 C 709.25 481.292969 709.25 481.140625 709.097656 480.988281 C 708.640625 480.070312 708.027344 479.152344 707.570312 478.234375 C 707.261719 477.621094 706.957031 477.011719 706.5 476.398438 L 706.34375 476.09375 C 706.039062 475.632812 705.734375 475.175781 705.582031 474.871094 C 705.121094 474.257812 704.816406 473.644531 704.355469 473.035156 C 704.050781 472.726562 703.898438 472.269531 703.59375 471.964844 L 717.511719 458.046875 L 725.921875 449.632812 C 726.382812 450.246094 726.839844 450.859375 727.300781 451.46875 C 728.523438 453 729.59375 454.375 730.664062 456.058594 Z M 723.78125 446.882812 C 724.394531 447.644531 725.003906 448.257812 725.617188 449.023438 L 703.285156 471.351562 C 703.132812 471.199219 703.132812 471.046875 702.980469 470.894531 L 702.675781 470.585938 C 701.605469 468.90625 700.378906 467.375 699.003906 465.691406 C 698.238281 464.773438 697.472656 463.859375 696.710938 462.941406 L 701.449219 458.199219 L 718.429688 441.222656 C 718.886719 441.679688 719.347656 442.140625 719.804688 442.597656 C 721.183594 443.976562 722.40625 445.351562 723.78125 446.882812 Z M 713.074219 436.328125 C 713.839844 436.941406 714.605469 437.703125 715.523438 438.46875 C 716.289062 439.082031 716.898438 439.847656 717.664062 440.457031 L 696.097656 462.023438 C 695.792969 461.5625 695.484375 461.257812 695.179688 460.796875 C 693.804688 459.269531 692.425781 457.738281 690.898438 456.210938 C 690.285156 455.597656 689.519531 454.835938 688.753906 454.222656 L 709.558594 433.421875 L 710.628906 434.1875 C 711.238281 434.644531 712.003906 435.257812 712.617188 435.871094 Z M 704.96875 430.210938 L 705.425781 430.515625 L 705.734375 430.667969 L 708.945312 432.964844 L 688.144531 453.761719 C 687.53125 453.304688 687.074219 452.691406 686.460938 452.234375 L 686.308594 452.082031 C 685.542969 451.316406 684.625 450.703125 683.859375 449.941406 L 683.402344 449.632812 C 682.636719 449.023438 682.027344 448.410156 681.261719 447.953125 L 680.34375 447.1875 C 680.191406 447.035156 680.039062 447.035156 679.882812 446.882812 L 699.769531 427 C 700.378906 427.457031 701.144531 427.765625 701.757812 428.222656 L 702.675781 428.835938 C 703.4375 429.292969 704.203125 429.753906 704.96875 430.210938 Z M 692.273438 422.871094 L 692.578125 423.023438 C 693.34375 423.328125 694.109375 423.789062 694.875 424.246094 L 695.792969 424.707031 C 696.710938 425.164062 697.78125 425.777344 698.851562 426.386719 C 699.003906 426.386719 699.003906 426.539062 699.15625 426.539062 L 679.273438 446.421875 C 679.121094 446.269531 678.96875 446.117188 678.660156 445.964844 L 677.589844 445.199219 C 677.132812 444.894531 676.519531 444.433594 676.0625 444.128906 L 675.144531 443.515625 C 674.378906 443.058594 673.613281 442.445312 672.847656 441.988281 L 671.929688 441.375 C 671.320312 441.070312 670.859375 440.609375 670.25 440.304688 L 689.0625 421.492188 L 689.671875 421.800781 C 690.285156 422.105469 691.050781 422.410156 691.816406 422.871094 Z M 680.496094 418.433594 C 681.109375 418.585938 681.71875 418.894531 682.636719 419.046875 L 683.402344 419.351562 C 684.167969 419.660156 684.933594 419.8125 685.695312 420.117188 L 686.308594 420.269531 C 687.074219 420.574219 687.683594 420.882812 688.449219 421.1875 L 669.789062 439.847656 C 669.484375 439.691406 669.332031 439.539062 669.023438 439.386719 C 667.953125 438.777344 667.035156 438.164062 665.964844 437.707031 L 665.046875 437.246094 C 664.285156 436.789062 663.367188 436.328125 662.601562 436.023438 L 661.683594 435.5625 C 661.070312 435.257812 660.460938 435.105469 659.847656 434.800781 L 677.285156 417.363281 L 677.894531 417.515625 C 678.507812 417.671875 679.121094 417.824219 679.730469 417.976562 Z M 670.707031 415.988281 L 671.625 416.140625 C 672.238281 416.292969 672.847656 416.445312 673.460938 416.445312 L 674.53125 416.753906 C 674.988281 416.90625 675.449219 416.90625 675.90625 417.058594 L 658.625 434.339844 L 658.316406 434.1875 C 657.402344 433.730469 656.328125 433.421875 655.414062 432.964844 L 654.800781 432.65625 C 654.035156 432.351562 653.269531 432.046875 652.507812 431.742188 L 651.433594 431.433594 C 650.824219 431.28125 650.058594 430.976562 649.445312 430.824219 L 648.222656 430.515625 C 648.070312 430.515625 647.917969 430.363281 647.765625 430.363281 C 647.765625 430.363281 647.613281 430.363281 647.613281 430.363281 L 663.058594 414.917969 C 663.367188 414.917969 663.519531 414.917969 663.824219 414.917969 L 664.742188 415.070312 C 665.8125 415.222656 666.882812 415.222656 667.953125 415.375 C 668.871094 415.683594 669.789062 415.835938 670.707031 415.988281 Z M 616.714844 427.609375 C 616.410156 427.609375 616.257812 427.609375 615.949219 427.765625 L 617.632812 426.847656 Z M 620.234375 425.316406 L 624.363281 423.023438 C 625.128906 422.5625 626.046875 422.105469 626.808594 421.800781 L 627.269531 421.648438 C 628.1875 421.1875 629.105469 420.730469 630.023438 420.421875 L 630.941406 420.117188 C 631.550781 419.8125 632.316406 419.503906 632.929688 419.351562 L 633.847656 419.046875 C 634.609375 418.742188 635.222656 418.585938 635.988281 418.28125 L 636.753906 417.976562 C 637.667969 417.671875 638.742188 417.363281 639.65625 417.058594 L 639.964844 417.058594 C 640.882812 416.90625 641.800781 416.597656 642.871094 416.445312 L 643.636719 416.292969 C 643.941406 416.292969 644.398438 416.140625 644.707031 416.140625 L 635.679688 425.164062 L 633.082031 427.765625 C 632.929688 427.765625 632.773438 427.765625 632.621094 427.765625 L 631.703125 427.609375 C 631.398438 427.609375 631.246094 427.609375 630.941406 427.609375 C 630.480469 427.609375 630.023438 427.609375 629.714844 427.457031 C 629.5625 427.457031 629.257812 427.457031 629.105469 427.457031 L 628.1875 427.457031 C 627.117188 427.457031 625.890625 427.457031 624.820312 427.457031 L 624.210938 427.457031 C 623.292969 427.457031 622.222656 427.457031 621.304688 427.609375 L 620.234375 427.609375 C 619.925781 427.609375 619.621094 427.609375 619.316406 427.609375 C 619.007812 427.609375 618.855469 427.609375 618.550781 427.609375 C 618.398438 427.609375 618.246094 427.609375 618.09375 427.609375 Z M 636.292969 425.621094 L 646.234375 415.683594 L 647 415.527344 C 648.070312 415.375 649.140625 415.222656 650.210938 415.070312 L 650.824219 415.070312 C 651.589844 414.917969 652.507812 414.917969 653.421875 414.917969 L 654.339844 414.917969 C 655.257812 414.917969 656.175781 414.917969 657.09375 414.917969 L 657.554688 414.917969 C 658.625 414.917969 659.695312 414.917969 660.765625 414.917969 L 661.53125 414.917969 C 661.683594 414.917969 661.988281 414.917969 662.140625 414.917969 L 646.847656 430.210938 C 646.695312 430.210938 646.539062 430.210938 646.539062 430.058594 L 645.316406 429.753906 C 644.707031 429.597656 644.09375 429.445312 643.328125 429.292969 L 642.257812 428.988281 C 642.257812 428.988281 642.105469 428.988281 642.105469 428.988281 C 641.953125 428.988281 641.644531 428.835938 641.492188 428.835938 C 641.035156 428.683594 640.574219 428.683594 640.117188 428.527344 L 639.199219 428.375 C 638.128906 428.222656 637.210938 428.070312 636.140625 427.917969 C 635.527344 427.765625 634.917969 427.765625 634.304688 427.765625 Z M 65.933594 265.648438 C 45.742188 254.027344 29.226562 222.367188 29.226562 195.296875 L 29.226562 90.535156 C 29.226562 76.769531 33.507812 66.371094 41.003906 62.089844 C 43.449219 60.558594 46.355469 59.945312 49.414062 59.945312 C 53.699219 59.945312 58.285156 61.324219 63.179688 64.078125 L 661.378906 409.410156 L 660.765625 409.410156 C 659.695312 409.410156 658.472656 409.257812 657.402344 409.257812 L 656.789062 409.257812 C 655.871094 409.257812 654.800781 409.257812 653.882812 409.257812 L 652.8125 409.257812 C 651.894531 409.257812 650.976562 409.410156 650.058594 409.410156 L 649.292969 409.410156 C 648.222656 409.5625 647 409.71875 645.929688 409.871094 L 645.164062 410.023438 C 644.246094 410.175781 643.480469 410.328125 642.5625 410.480469 L 641.492188 410.636719 C 640.574219 410.789062 639.503906 411.09375 638.585938 411.246094 L 638.128906 411.398438 C 637.058594 411.707031 635.988281 412.011719 635.070312 412.316406 L 634.152344 412.625 C 633.386719 412.929688 632.621094 413.082031 631.859375 413.386719 L 630.785156 413.847656 C 630.023438 414.152344 629.410156 414.457031 628.492188 414.765625 L 627.726562 415.070312 C 626.65625 415.527344 625.738281 415.988281 624.667969 416.445312 L 624.210938 416.601562 C 623.292969 417.058594 622.375 417.515625 621.457031 417.976562 L 588.878906 435.71875 C 572.359375 444.742188 559.664062 460.035156 553.238281 479.152344 C 545.898438 500.5625 546.816406 525.1875 555.535156 547.972656 Z M 718.886719 721.710938 L 663.058594 609.761719 L 661.070312 610.21875 C 653.117188 611.75 644.859375 612.054688 636.597656 610.832031 C 607.230469 606.703125 579.855469 585.75 565.171875 556.230469 C 553.085938 531.914062 550.640625 504.691406 558.59375 481.140625 C 565.015625 462.328125 577.867188 447.339844 594.539062 439.234375 C 596.066406 438.46875 597.441406 437.859375 598.972656 437.246094 C 599.125 437.246094 599.277344 437.09375 599.429688 437.09375 C 602.492188 435.871094 605.550781 434.953125 608.761719 434.1875 C 608.914062 434.1875 609.066406 434.1875 609.066406 434.035156 C 612.28125 433.269531 615.644531 432.8125 619.007812 432.503906 C 619.164062 432.503906 619.164062 432.503906 619.316406 432.503906 C 622.527344 432.199219 625.890625 432.199219 629.257812 432.503906 C 629.5625 432.503906 629.871094 432.503906 630.328125 432.503906 C 631.859375 432.65625 633.539062 432.8125 635.070312 432.964844 C 636.753906 433.269531 638.433594 433.574219 640.117188 433.882812 C 640.269531 433.882812 640.574219 434.035156 640.730469 434.035156 C 642.410156 434.339844 643.941406 434.800781 645.625 435.257812 C 645.777344 435.257812 646.082031 435.410156 646.234375 435.410156 C 647.917969 435.871094 649.445312 436.480469 651.128906 436.941406 C 651.28125 436.941406 651.28125 437.09375 651.433594 437.09375 C 668.871094 443.363281 684.777344 455.445312 696.554688 471.503906 C 696.710938 471.808594 697.015625 471.964844 697.167969 472.269531 C 697.933594 473.492188 698.851562 474.5625 699.617188 475.785156 C 700.074219 476.398438 700.535156 477.164062 700.839844 477.773438 C 701.757812 479.152344 702.675781 480.679688 703.4375 482.058594 C 703.4375 482.210938 703.59375 482.210938 703.59375 482.363281 C 704.511719 484.046875 705.582031 485.878906 706.34375 487.5625 C 707.417969 489.855469 708.488281 492.152344 709.40625 494.445312 L 709.558594 494.75 C 715.371094 508.972656 717.96875 523.65625 717.359375 537.878906 C 717.359375 538.03125 717.359375 538.03125 717.359375 538.1875 C 717.203125 540.328125 717.050781 542.46875 716.746094 544.761719 C 716.746094 544.914062 716.746094 545.222656 716.746094 545.375 L 716.746094 545.527344 C 716.441406 547.515625 716.132812 549.503906 715.828125 551.492188 C 715.828125 551.644531 715.828125 551.949219 715.675781 552.101562 L 715.523438 552.714844 C 715.214844 554.398438 714.757812 556.230469 714.300781 557.914062 C 714.300781 558.066406 714.144531 558.375 714.144531 558.527344 L 713.839844 559.445312 C 713.382812 561.125 712.769531 562.65625 712.308594 564.183594 C 712.15625 564.492188 712.15625 564.796875 712.003906 565.101562 L 711.699219 565.867188 C 711.085938 567.398438 710.476562 569.078125 709.710938 570.609375 C 709.558594 571.066406 709.25 571.527344 709.097656 571.832031 L 708.792969 572.289062 C 708.027344 573.820312 707.261719 575.195312 706.5 576.574219 C 706.34375 576.878906 706.191406 577.03125 706.039062 577.339844 L 705.582031 578.101562 C 704.664062 579.632812 703.746094 581.007812 702.675781 582.539062 C 702.675781 582.539062 702.675781 582.691406 702.523438 582.691406 L 701.910156 583.457031 C 700.839844 584.984375 699.617188 586.515625 698.390625 587.890625 L 697.933594 588.347656 C 696.554688 589.878906 695.179688 591.410156 693.652344 592.785156 L 691.660156 593.855469 L 715.675781 641.878906 L 748.253906 707.03125 Z M 636.140625 463.703125 C 626.65625 462.328125 617.175781 463.703125 608.761719 467.832031 C 597.441406 473.339844 588.878906 483.28125 584.59375 495.820312 C 579.394531 511.117188 580.925781 529.164062 588.726562 544.914062 C 598.359375 564.183594 616.257812 577.796875 635.527344 580.550781 C 637.824219 580.855469 640.117188 581.007812 642.5625 581.007812 C 649.753906 581.007812 656.636719 579.480469 662.90625 576.421875 C 674.226562 570.914062 682.789062 560.972656 687.074219 548.433594 C 692.273438 533.140625 690.746094 515.246094 682.945312 499.339844 C 673.308594 480.070312 655.414062 466.304688 636.140625 463.703125 Z M 682.027344 546.597656 C 680.648438 550.574219 678.8125 554.398438 676.519531 557.761719 C 676.214844 557.761719 675.753906 557.761719 675.449219 557.761719 L 675.144531 557.761719 C 674.378906 557.761719 673.460938 557.761719 672.695312 557.609375 L 671.929688 557.609375 C 671.011719 557.609375 670.09375 557.457031 669.179688 557.304688 C 668.105469 557.148438 666.882812 556.996094 665.8125 556.691406 L 664.742188 556.386719 C 663.976562 556.230469 663.210938 556.078125 662.449219 555.773438 L 661.070312 555.316406 C 660.304688 555.160156 659.695312 554.855469 658.929688 554.550781 C 658.472656 554.398438 658.011719 554.246094 657.554688 554.089844 C 656.789062 553.785156 656.175781 553.480469 655.566406 553.171875 L 655.257812 553.019531 C 654.800781 552.867188 654.339844 552.714844 654.035156 552.410156 L 653.269531 552.101562 C 652.351562 551.644531 651.433594 551.183594 650.519531 550.726562 C 649.601562 550.269531 648.835938 549.65625 647.917969 549.195312 L 647.304688 548.738281 C 646.847656 548.433594 646.539062 548.28125 646.234375 547.972656 L 645.929688 547.667969 C 645.316406 547.210938 644.859375 546.902344 644.246094 546.445312 C 643.789062 546.136719 643.480469 545.832031 643.023438 545.527344 C 642.410156 545.066406 641.953125 544.609375 641.492188 544.148438 C 641.035156 543.84375 640.574219 543.386719 640.269531 543.078125 C 639.8125 542.621094 639.503906 542.316406 639.046875 541.855469 C 638.585938 541.398438 638.128906 540.9375 637.824219 540.632812 C 637.363281 540.175781 637.058594 539.714844 636.597656 539.410156 C 636.140625 538.949219 635.835938 538.492188 635.375 538.03125 C 635.070312 537.574219 634.609375 537.113281 634.304688 536.65625 C 633.847656 536.199219 633.539062 535.738281 633.082031 535.128906 C 632.773438 534.667969 632.316406 534.210938 632.011719 533.75 C 631.703125 533.292969 631.246094 532.679688 630.941406 532.222656 C 630.632812 531.761719 630.175781 531.152344 629.867188 530.539062 C 629.5625 530.078125 629.257812 529.46875 628.953125 529.007812 C 628.644531 528.398438 628.339844 527.9375 628.035156 527.328125 C 627.574219 526.5625 627.117188 525.644531 626.65625 524.726562 C 626.199219 523.65625 625.738281 522.738281 625.28125 521.667969 L 624.976562 520.75 C 624.667969 519.984375 624.363281 519.222656 624.058594 518.457031 L 623.292969 516.316406 C 623.140625 515.855469 622.984375 515.398438 622.832031 514.9375 L 622.527344 513.867188 C 622.375 513.410156 622.222656 512.949219 622.070312 512.492188 L 621.761719 511.421875 C 621.609375 510.960938 621.609375 510.503906 621.457031 510.046875 L 621.152344 508.972656 C 620.996094 508.515625 620.996094 508.058594 620.84375 507.597656 L 620.691406 506.527344 C 620.539062 506.070312 620.539062 505.457031 620.386719 504.84375 L 620.234375 504.082031 C 620.234375 503.46875 620.078125 503.011719 620.078125 502.398438 L 619.925781 501.632812 C 619.925781 500.867188 619.773438 499.949219 619.773438 499.1875 L 619.773438 498.878906 C 619.773438 498.117188 619.773438 497.503906 619.773438 496.738281 L 619.773438 495.976562 C 619.773438 495.515625 619.773438 494.902344 619.773438 494.445312 L 619.773438 493.527344 C 619.773438 493.070312 619.773438 492.609375 619.925781 492.152344 L 620.078125 491.234375 C 620.078125 490.773438 620.234375 490.316406 620.234375 489.855469 L 620.386719 488.785156 C 620.386719 488.328125 620.539062 487.867188 620.539062 487.5625 L 621.152344 484.351562 C 621.304688 483.890625 621.304688 483.585938 621.457031 483.128906 L 621.761719 482.210938 C 621.914062 481.75 622.070312 481.292969 622.222656 480.988281 L 622.527344 480.070312 C 622.679688 479.609375 622.832031 479.152344 622.984375 478.84375 L 623.292969 478.082031 C 623.445312 477.621094 623.597656 477.316406 623.902344 476.703125 L 624.210938 476.09375 C 624.515625 475.480469 624.820312 474.714844 625.28125 473.953125 C 625.585938 473.339844 625.890625 472.726562 626.199219 472.117188 L 626.503906 471.503906 C 626.808594 471.046875 626.964844 470.738281 627.269531 470.28125 L 627.726562 469.515625 C 627.878906 469.363281 627.878906 469.210938 628.035156 469.210938 C 630.480469 469.210938 632.929688 469.210938 635.375 469.667969 C 652.964844 472.117188 669.332031 484.65625 678.050781 502.398438 C 685.390625 516.164062 686.765625 532.527344 682.027344 546.597656 Z M 221.332031 230.167969 C 214.296875 226.191406 209.097656 224.507812 204.050781 223.898438 C 202.214844 223.589844 200.683594 224.96875 200.683594 227.566406 C 200.683594 230.777344 202.980469 234.753906 205.886719 236.4375 C 206.496094 236.742188 207.109375 237.050781 207.875 237.203125 C 211.238281 237.660156 215.0625 238.886719 219.804688 241.636719 C 228.367188 246.683594 233.109375 254.027344 233.109375 262.742188 L 233.109375 264.273438 C 228.980469 260.296875 224.699219 256.933594 218.734375 253.414062 C 205.578125 245.921875 196.707031 247.144531 196.707031 260.449219 L 196.707031 260.753906 C 196.707031 273.144531 205.578125 284.917969 215.675781 290.578125 C 223.933594 295.320312 229.441406 294.554688 233.109375 291.648438 L 233.109375 293.941406 C 233.109375 297.15625 235.558594 301.285156 239.074219 303.273438 C 242.441406 305.261719 245.039062 303.882812 245.039062 299.90625 L 245.039062 269.625 C 245.039062 261.671875 243.207031 254.027344 239.230469 247.296875 C 235.25 240.71875 229.285156 234.910156 221.332031 230.167969 Z M 233.109375 277.121094 C 233.109375 284.917969 226.992188 286.753906 218.886719 282.011719 C 213.074219 278.648438 208.484375 272.683594 208.484375 266.71875 L 208.484375 266.414062 C 208.484375 259.992188 213.074219 258.921875 221.027344 263.507812 C 225.921875 266.261719 230.050781 269.777344 233.261719 272.992188 L 233.261719 277.121094 Z M 161.988281 195.449219 C 146.691406 186.578125 135.832031 194.839844 135.832031 212.273438 L 135.832031 212.578125 C 135.832031 231.542969 147.761719 251.273438 163.363281 260.296875 C 171.625 265.039062 177.742188 265.496094 182.636719 263.203125 C 183.554688 262.742188 184.320312 261.519531 184.320312 259.835938 C 184.320312 256.625 182.175781 252.957031 179.425781 251.273438 C 178.046875 250.507812 177.128906 250.507812 176.210938 250.8125 C 172.695312 252.039062 168.71875 251.882812 163.515625 248.824219 C 155.5625 244.238281 149.445312 235.0625 148.070312 224.355469 L 181.566406 243.777344 C 184.777344 245.613281 187.378906 244.390625 187.378906 240.414062 C 187.378906 226.191406 178.964844 205.390625 161.988281 195.449219 Z M 148.070312 215.027344 C 149.140625 206.15625 154.492188 202.484375 161.988281 206.921875 C 170.09375 211.660156 174.835938 221.449219 175.601562 230.933594 Z M 126.195312 219.15625 L 126.195312 219.460938 C 126.195312 232.308594 117.480469 233.683594 106.3125 227.261719 C 99.582031 223.285156 92.089844 216.554688 85.96875 208.144531 C 84.59375 206.613281 83.675781 204.167969 83.675781 201.875 C 83.675781 198.664062 85.816406 197.4375 88.570312 199.121094 C 89.640625 199.734375 90.558594 200.648438 91.171875 201.414062 C 96.371094 208.296875 101.722656 213.496094 106.617188 216.25 C 111.820312 219.308594 114.878906 218.542969 114.878906 214.414062 L 114.878906 214.109375 C 114.878906 209.367188 109.21875 204.472656 102.949219 198.664062 C 94.996094 191.472656 86.277344 182.757812 86.277344 170.980469 L 86.277344 170.675781 C 86.277344 159.050781 94.6875 156.757812 105.394531 163.027344 C 111.054688 166.238281 117.019531 171.59375 122.21875 177.710938 C 123.902344 179.699219 125.125 182.296875 125.125 184.746094 C 125.125 187.957031 122.832031 189.179688 120.078125 187.496094 C 119.007812 186.886719 118.394531 186.273438 117.632812 185.355469 C 113.347656 180.308594 108.761719 176.027344 105.089844 173.886719 C 100.347656 171.132812 97.59375 172.050781 97.59375 175.570312 L 97.59375 175.875 C 97.59375 180.460938 103.40625 185.664062 109.679688 191.628906 C 117.324219 198.96875 126.195312 208.144531 126.195312 219.15625 Z M 405.488281 359.554688 L 405.488281 392.28125 C 405.488281 396.257812 402.886719 397.789062 399.371094 395.800781 C 395.851562 393.8125 393.25 389.222656 393.25 385.246094 L 393.25 356.800781 C 393.25 347.320312 389.121094 339.367188 381.78125 335.234375 C 374.746094 331.105469 369.695312 334.011719 369.695312 343.496094 L 369.695312 371.789062 C 369.695312 375.765625 366.945312 377.140625 363.578125 375.152344 C 360.214844 373.164062 357.460938 368.578125 357.460938 364.601562 L 357.460938 292.566406 C 357.460938 288.742188 360.0625 287.0625 363.578125 289.046875 C 367.097656 291.035156 369.695312 295.777344 369.695312 299.601562 L 369.695312 326.058594 C 373.214844 322.390625 378.109375 320.25 386.367188 324.988281 C 398.453125 332.023438 405.488281 345.332031 405.488281 359.554688 Z M 345.53125 352.367188 C 345.53125 354.199219 344.917969 355.425781 343.847656 355.730469 C 339.105469 358.175781 333.292969 358.328125 324.421875 353.28125 C 308.515625 344.105469 296.738281 323 296.738281 305.566406 L 296.738281 305.261719 C 296.738281 287.824219 308.515625 280.027344 324.574219 289.355469 C 332.988281 294.25 338.800781 300.671875 343.390625 307.859375 C 344.152344 309.082031 345.378906 311.53125 345.378906 313.824219 C 345.378906 317.496094 342.777344 318.71875 339.71875 316.882812 C 338.1875 315.964844 336.8125 314.589844 336.046875 313.367188 C 332.835938 308.472656 329.46875 304.34375 324.574219 301.589844 C 315.703125 296.390625 309.128906 301.4375 309.128906 312.140625 L 309.128906 312.449219 C 309.128906 323.308594 315.703125 335.847656 325.1875 341.355469 C 330.082031 344.105469 333.753906 344.105469 337.117188 342.730469 C 337.882812 342.425781 339.105469 342.269531 340.484375 343.1875 C 343.082031 344.871094 345.53125 349 345.53125 352.367188 Z M 291.386719 277.578125 C 291.386719 281.25 289.242188 282.472656 286.492188 281.554688 C 277.773438 278.191406 271.808594 282.472656 271.808594 297 L 271.808594 315.203125 C 271.808594 319.023438 269.054688 320.554688 265.6875 318.566406 C 262.324219 316.578125 259.570312 311.988281 259.570312 308.011719 L 259.570312 259.378906 C 259.570312 255.402344 262.171875 253.871094 265.6875 255.859375 C 269.207031 257.847656 271.808594 262.589844 271.808594 266.566406 L 271.808594 272.835938 C 274.714844 266.871094 279.914062 263.96875 285.265625 267.179688 C 289.089844 269.320312 291.386719 273.601562 291.386719 277.578125 Z M 291.386719 277.578125"/></g></svg>