<svg xmlns="http://www.w3.org/2000/svg" width="45" viewBox="0 0 45 45" height="45" version="1.0"><defs><clipPath id="a"><path d="M 1.226562 1.226562 L 43.976562 1.226562 L 43.976562 43.976562 L 1.226562 43.976562 Z M 1.226562 1.226562"/></clipPath></defs><g clip-path="url(#a)"><path d="M 22.601562 1.71875 C 10.796875 1.71875 1.226562 11.273438 1.226562 23.054688 C 1.226562 32.484375 7.351562 40.484375 15.84375 43.3125 C 16.910156 43.503906 17.667969 42.414062 17.667969 41.589844 C 17.667969 41.089844 17.679688 40.484375 17.667969 38.714844 C 11.71875 39.996094 9.855469 35.835938 9.855469 35.835938 C 8.882812 33.371094 7.699219 32.664062 7.699219 32.664062 C 5.757812 31.339844 7.839844 31.378906 7.839844 31.378906 C 9.984375 31.519531 11.089844 33.371094 11.089844 33.371094 C 12.734375 36.246094 16.445312 35.964844 17.667969 35.425781 C 17.667969 34.113281 17.808594 33.164062 18.167969 32.558594 C 11.449219 31.378906 7.789062 27.5 7.800781 22.128906 C 7.816406 18.957031 8.90625 16.492188 10.679688 14.667969 C 9.910156 13.691406 9.382812 10.351562 10.960938 8.296875 C 14.929688 8.296875 17.292969 11.160156 17.292969 11.160156 C 17.292969 11.160156 19.15625 10.351562 22.585938 10.351562 C 26.03125 10.351562 27.878906 11.121094 27.878906 11.121094 C 27.878906 11.121094 30.257812 8.296875 34.226562 8.296875 C 35.804688 10.351562 35.277344 13.691406 34.660156 14.601562 C 36.359375 16.386719 37.398438 18.855469 37.398438 22.128906 C 37.398438 27.5 33.75 31.378906 27.042969 32.546875 C 27.46875 33.191406 27.53125 34.089844 27.53125 35.425781 C 27.53125 38.277344 27.53125 40.882812 27.53125 41.589844 C 27.53125 42.414062 28.277344 43.519531 29.371094 43.3125 C 37.859375 40.472656 43.976562 32.484375 43.976562 23.054688 C 43.976562 11.273438 34.40625 1.71875 22.601562 1.71875 Z M 22.601562 1.71875"/></g></svg>