<svg xmlns="http://www.w3.org/2000/svg" width="30" viewBox="0 0 30 30" height="30" version="1.0"><defs><clipPath id="a"><path d="M 0.851562 0.652344 L 29.160156 0.652344 L 29.160156 28.230469 L 0.851562 28.230469 Z M 0.851562 0.652344"/></clipPath></defs><g clip-path="url(#a)"><path fill="#161614" d="M 15.003906 0.667969 C 7.191406 0.667969 0.851562 6.964844 0.851562 14.734375 C 0.851562 20.949219 4.90625 26.222656 10.53125 28.082031 C 11.238281 28.210938 11.5 27.777344 11.5 27.402344 C 11.5 27.070312 11.484375 25.960938 11.480469 24.785156 C 7.542969 25.636719 6.710938 23.125 6.710938 23.125 C 6.066406 21.5 5.140625 21.066406 5.140625 21.066406 C 3.855469 20.195312 5.238281 20.210938 5.238281 20.210938 C 6.65625 20.3125 7.40625 21.664062 7.40625 21.664062 C 8.667969 23.8125 10.71875 23.191406 11.523438 22.832031 C 11.652344 21.921875 12.019531 21.300781 12.421875 20.949219 C 9.28125 20.59375 5.976562 19.386719 5.976562 14 C 5.976562 12.460938 6.527344 11.207031 7.433594 10.222656 C 7.285156 9.867188 6.800781 8.4375 7.570312 6.5 C 7.570312 6.5 8.757812 6.121094 11.464844 7.941406 C 12.59375 7.628906 13.804688 7.472656 15.003906 7.46875 C 16.207031 7.472656 17.421875 7.628906 18.550781 7.941406 C 21.253906 6.121094 22.441406 6.5 22.441406 6.5 C 23.210938 8.4375 22.726562 9.867188 22.578125 10.222656 C 23.484375 11.207031 24.035156 12.460938 24.035156 14 C 24.035156 19.402344 20.726562 20.589844 17.570312 20.9375 C 18.078125 21.375 18.53125 22.230469 18.53125 23.542969 C 18.53125 25.425781 18.515625 26.941406 18.515625 27.402344 C 18.515625 27.777344 18.769531 28.21875 19.488281 28.078125 C 25.109375 26.21875 29.160156 20.945312 29.160156 14.734375 C 29.160156 6.964844 22.820312 0.667969 15.003906 0.667969 Z M 6.152344 20.703125 C 6.121094 20.773438 6.011719 20.796875 5.910156 20.746094 C 5.808594 20.703125 5.75 20.605469 5.785156 20.535156 C 5.8125 20.464844 5.925781 20.445312 6.027344 20.492188 C 6.128906 20.539062 6.1875 20.632812 6.152344 20.703125 Z M 6.851562 21.324219 C 6.78125 21.382812 6.648438 21.355469 6.5625 21.257812 C 6.46875 21.160156 6.449219 21.027344 6.519531 20.964844 C 6.589844 20.902344 6.71875 20.933594 6.808594 21.03125 C 6.902344 21.128906 6.921875 21.261719 6.851562 21.324219 Z M 7.328125 22.113281 C 7.242188 22.171875 7.097656 22.117188 7.011719 21.992188 C 6.925781 21.867188 6.925781 21.714844 7.011719 21.65625 C 7.101562 21.59375 7.242188 21.648438 7.328125 21.773438 C 7.414062 21.902344 7.414062 22.050781 7.328125 22.113281 Z M 8.136719 23.027344 C 8.058594 23.113281 7.890625 23.089844 7.769531 22.972656 C 7.648438 22.859375 7.613281 22.699219 7.691406 22.613281 C 7.769531 22.527344 7.9375 22.550781 8.058594 22.667969 C 8.179688 22.78125 8.21875 22.945312 8.136719 23.027344 Z M 9.179688 23.335938 C 9.144531 23.445312 8.984375 23.496094 8.824219 23.449219 C 8.664062 23.402344 8.558594 23.273438 8.59375 23.160156 C 8.625 23.050781 8.785156 22.996094 8.949219 23.046875 C 9.105469 23.097656 9.210938 23.222656 9.179688 23.335938 Z M 10.367188 23.464844 C 10.371094 23.582031 10.234375 23.679688 10.066406 23.679688 C 9.898438 23.683594 9.761719 23.589844 9.757812 23.476562 C 9.757812 23.359375 9.890625 23.265625 10.0625 23.261719 C 10.230469 23.257812 10.367188 23.351562 10.367188 23.464844 Z M 11.535156 23.421875 C 11.554688 23.535156 11.4375 23.652344 11.269531 23.683594 C 11.105469 23.710938 10.953125 23.640625 10.933594 23.53125 C 10.914062 23.414062 11.03125 23.296875 11.195312 23.269531 C 11.363281 23.238281 11.511719 23.308594 11.535156 23.421875 Z M 11.535156 23.421875"/></g></svg>