<svg xmlns="http://www.w3.org/2000/svg" width="30" viewBox="0 0 30 30" height="30" version="1.0"><defs><clipPath id="a"><path d="M 1.101562 0.617188 L 29.40625 0.617188 L 29.40625 28.921875 L 1.101562 28.921875 Z M 1.101562 0.617188"/></clipPath></defs><g clip-path="url(#a)"><path d="M 9.316406 0.617188 C 4.792969 0.617188 1.101562 4.308594 1.101562 8.832031 L 1.101562 20.714844 C 1.101562 25.230469 4.792969 28.921875 9.316406 28.921875 L 21.199219 28.921875 C 25.714844 28.921875 29.40625 25.230469 29.40625 20.707031 L 29.40625 8.832031 C 29.40625 4.308594 25.714844 0.617188 21.191406 0.617188 Z M 9.316406 2.792969 L 21.191406 2.792969 C 24.542969 2.792969 27.230469 5.480469 27.230469 8.832031 L 27.230469 20.707031 C 27.230469 24.058594 24.542969 26.746094 21.199219 26.746094 L 9.316406 26.746094 C 5.964844 26.746094 3.277344 24.058594 3.277344 20.714844 L 3.277344 8.832031 C 3.277344 5.480469 5.964844 2.792969 9.316406 2.792969 Z M 23.964844 4.972656 C 23.359375 4.972656 22.875 5.457031 22.875 6.058594 C 22.875 6.664062 23.359375 7.148438 23.964844 7.148438 C 24.566406 7.148438 25.050781 6.664062 25.050781 6.058594 C 25.050781 5.457031 24.566406 4.972656 23.964844 4.972656 Z M 15.253906 7.148438 C 11.0625 7.148438 7.632812 10.578125 7.632812 14.769531 C 7.632812 18.964844 11.0625 22.390625 15.253906 22.390625 C 19.445312 22.390625 22.875 18.964844 22.875 14.769531 C 22.875 10.578125 19.445312 7.148438 15.253906 7.148438 Z M 15.253906 9.328125 C 18.273438 9.328125 20.699219 11.75 20.699219 14.769531 C 20.699219 17.789062 18.273438 20.214844 15.253906 20.214844 C 12.234375 20.214844 9.808594 17.789062 9.808594 14.769531 C 9.808594 11.75 12.234375 9.328125 15.253906 9.328125 Z M 15.253906 9.328125"/></g></svg>