<svg xmlns="http://www.w3.org/2000/svg" width="30" viewBox="0 0 30 30" height="30" version="1.0"><defs><clipPath id="a"><path d="M 1.101562 0.617188 L 28.679688 0.617188 L 28.679688 28.199219 L 1.101562 28.199219 Z M 1.101562 0.617188"/></clipPath></defs><g clip-path="url(#a)"><path d="M 9.105469 0.617188 C 4.699219 0.617188 1.101562 4.214844 1.101562 8.621094 L 1.101562 20.199219 C 1.101562 24.601562 4.699219 28.199219 9.105469 28.199219 L 20.683594 28.199219 C 25.085938 28.199219 28.679688 24.601562 28.679688 20.191406 L 28.679688 8.621094 C 28.679688 4.214844 25.085938 0.617188 20.675781 0.617188 Z M 9.105469 2.738281 L 20.675781 2.738281 C 23.941406 2.738281 26.558594 5.355469 26.558594 8.621094 L 26.558594 20.191406 C 26.558594 23.457031 23.941406 26.074219 20.683594 26.074219 L 9.105469 26.074219 C 5.839844 26.074219 3.222656 23.457031 3.222656 20.199219 L 3.222656 8.621094 C 3.222656 5.355469 5.839844 2.738281 9.105469 2.738281 Z M 23.378906 4.859375 C 22.789062 4.859375 22.316406 5.332031 22.316406 5.921875 C 22.316406 6.507812 22.789062 6.980469 23.378906 6.980469 C 23.964844 6.980469 24.4375 6.507812 24.4375 5.921875 C 24.4375 5.332031 23.964844 4.859375 23.378906 4.859375 Z M 14.890625 6.980469 C 10.804688 6.980469 7.464844 10.320312 7.464844 14.40625 C 7.464844 18.492188 10.804688 21.832031 14.890625 21.832031 C 18.976562 21.832031 22.316406 18.492188 22.316406 14.40625 C 22.316406 10.320312 18.976562 6.980469 14.890625 6.980469 Z M 14.890625 9.101562 C 17.832031 9.101562 20.195312 11.464844 20.195312 14.40625 C 20.195312 17.347656 17.832031 19.710938 14.890625 19.710938 C 11.949219 19.710938 9.585938 17.347656 9.585938 14.40625 C 9.585938 11.464844 11.949219 9.101562 14.890625 9.101562 Z M 14.890625 9.101562"/></g></svg>