<svg xmlns="http://www.w3.org/2000/svg" width="30" viewBox="0 0 30 30" height="30" version="1.0"><defs><clipPath id="a"><path d="M 0.484375 0 L 29.515625 0 L 29.515625 29.03125 L 0.484375 29.03125 Z M 0.484375 0"/></clipPath></defs><g clip-path="url(#a)"><path d="M 4.410156 0 C 2.253906 0 0.484375 1.769531 0.484375 3.925781 L 0.484375 25.117188 C 0.484375 27.261719 2.253906 29.03125 4.410156 29.03125 L 25.597656 29.03125 C 27.746094 29.03125 29.515625 27.261719 29.515625 25.117188 L 29.515625 3.925781 C 29.515625 1.769531 27.746094 0 25.597656 0 Z M 4.410156 2.234375 L 25.597656 2.234375 C 26.542969 2.234375 27.28125 2.976562 27.28125 3.925781 L 27.28125 25.117188 C 27.28125 26.058594 26.542969 26.800781 25.597656 26.800781 L 4.410156 26.800781 C 3.457031 26.800781 2.71875 26.058594 2.71875 25.117188 L 2.71875 3.925781 C 2.71875 2.976562 3.457031 2.234375 4.410156 2.234375 Z M 7.183594 4.464844 C 5.953125 4.464844 4.949219 5.46875 4.949219 6.699219 C 4.949219 7.929688 5.953125 8.933594 7.183594 8.933594 C 8.414062 8.933594 9.417969 7.929688 9.417969 6.699219 C 9.417969 5.46875 8.414062 4.464844 7.183594 4.464844 Z M 4.949219 11.167969 L 4.949219 24.566406 L 9.417969 24.566406 L 9.417969 11.167969 Z M 11.648438 11.167969 L 11.648438 24.566406 L 16.117188 24.566406 L 16.117188 18.582031 C 16.117188 16.722656 16.292969 15.058594 18.523438 15.058594 C 20.722656 15.058594 20.582031 17.054688 20.582031 18.703125 L 20.582031 24.566406 L 25.050781 24.566406 L 25.050781 17.953125 C 25.050781 14.113281 24.246094 11.167969 19.894531 11.167969 C 17.800781 11.167969 16.746094 12.003906 16.167969 13.121094 L 16.117188 13.121094 L 16.117188 11.167969 Z M 11.648438 11.167969"/></g></svg>