<svg xmlns="http://www.w3.org/2000/svg" width="30" viewBox="0 0 30 30" height="30" version="1.0"><defs><clipPath id="a"><path d="M 1.035156 0.550781 L 28.617188 0.550781 L 28.617188 28.132812 L 1.035156 28.132812 Z M 1.035156 0.550781"/></clipPath></defs><g clip-path="url(#a)"><path fill="#12100E" d="M 5.171875 0.550781 L 24.480469 0.550781 C 24.75 0.550781 25.019531 0.578125 25.285156 0.632812 C 25.550781 0.683594 25.8125 0.761719 26.0625 0.867188 C 26.3125 0.96875 26.550781 1.097656 26.777344 1.25 C 27.003906 1.398438 27.210938 1.570312 27.40625 1.761719 C 27.597656 1.957031 27.769531 2.164062 27.917969 2.390625 C 28.070312 2.617188 28.195312 2.855469 28.300781 3.105469 C 28.40625 3.355469 28.484375 3.613281 28.535156 3.882812 C 28.589844 4.148438 28.617188 4.417969 28.617188 4.6875 L 28.617188 23.996094 C 28.617188 24.265625 28.589844 24.535156 28.535156 24.800781 C 28.484375 25.070312 28.40625 25.328125 28.300781 25.578125 C 28.195312 25.828125 28.070312 26.066406 27.917969 26.292969 C 27.769531 26.519531 27.597656 26.726562 27.40625 26.921875 C 27.210938 27.113281 27.003906 27.285156 26.777344 27.433594 C 26.550781 27.585938 26.3125 27.714844 26.0625 27.816406 C 25.8125 27.921875 25.550781 28 25.285156 28.054688 C 25.019531 28.105469 24.75 28.132812 24.480469 28.132812 L 5.171875 28.132812 C 4.902344 28.132812 4.632812 28.105469 4.367188 28.054688 C 4.097656 28 3.839844 27.921875 3.589844 27.816406 C 3.339844 27.714844 3.101562 27.585938 2.875 27.433594 C 2.648438 27.285156 2.4375 27.113281 2.246094 26.921875 C 2.054688 26.726562 1.882812 26.519531 1.734375 26.292969 C 1.582031 26.066406 1.453125 25.828125 1.351562 25.578125 C 1.246094 25.328125 1.167969 25.070312 1.113281 24.800781 C 1.0625 24.535156 1.035156 24.265625 1.035156 23.996094 L 1.035156 4.6875 C 1.035156 4.417969 1.0625 4.148438 1.113281 3.882812 C 1.167969 3.613281 1.246094 3.355469 1.351562 3.105469 C 1.453125 2.855469 1.582031 2.617188 1.734375 2.390625 C 1.882812 2.164062 2.054688 1.957031 2.246094 1.761719 C 2.4375 1.570312 2.648438 1.398438 2.875 1.25 C 3.101562 1.097656 3.339844 0.96875 3.589844 0.867188 C 3.839844 0.761719 4.097656 0.683594 4.367188 0.632812 C 4.632812 0.578125 4.902344 0.550781 5.171875 0.550781 Z M 5.171875 0.550781"/></g><path fill="#FFF" d="M 7.769531 9.871094 C 7.769531 9.65625 7.660156 9.386719 7.5 9.277344 L 5.828125 7.230469 L 5.828125 6.90625 L 11.109375 6.90625 L 15.148438 15.851562 L 18.757812 6.90625 L 23.769531 6.90625 L 23.769531 7.230469 L 22.3125 8.632812 C 22.207031 8.6875 22.152344 8.847656 22.152344 9.007812 L 22.152344 19.242188 C 22.152344 19.40625 22.207031 19.566406 22.3125 19.675781 L 23.769531 21.023438 L 23.769531 21.34375 L 16.601562 21.34375 L 16.601562 21.023438 L 18.058594 19.621094 C 18.21875 19.460938 18.21875 19.40625 18.21875 19.191406 L 18.21875 10.949219 L 14.125 21.289062 L 13.585938 21.289062 L 8.847656 10.949219 L 8.847656 17.898438 C 8.792969 18.167969 8.898438 18.488281 9.117188 18.707031 L 11 21.023438 L 11 21.289062 L 5.613281 21.289062 L 5.613281 21.023438 L 7.5 18.707031 C 7.714844 18.488281 7.824219 18.167969 7.769531 17.898438 Z M 7.769531 9.871094"/></svg>