<svg xmlns="http://www.w3.org/2000/svg" width="45" viewBox="0 0 45 45" height="45" version="1.0"><defs><clipPath id="a"><path d="M 2.851562 2.851562 L 41.851562 2.851562 L 41.851562 41.851562 L 2.851562 41.851562 Z M 2.851562 2.851562"/></clipPath><clipPath id="b"><path d="M 20 2.851562 L 41.851562 2.851562 L 41.851562 25 L 20 25 Z M 20 2.851562"/></clipPath></defs><g clip-path="url(#a)"><path d="M 39.898438 20.398438 C 39.640625 20.398438 39.394531 20.449219 39.152344 20.546875 C 38.914062 20.648438 38.703125 20.789062 38.519531 20.972656 C 38.339844 21.152344 38.199219 21.363281 38.097656 21.605469 C 38 21.84375 37.949219 22.089844 37.949219 22.351562 L 37.949219 37.949219 L 6.75 37.949219 L 6.75 6.75 L 22.351562 6.75 C 22.609375 6.75 22.855469 6.699219 23.097656 6.601562 C 23.335938 6.503906 23.546875 6.363281 23.730469 6.179688 C 23.910156 5.996094 24.050781 5.785156 24.152344 5.546875 C 24.25 5.308594 24.300781 5.058594 24.300781 4.800781 C 24.300781 4.542969 24.25 4.292969 24.152344 4.054688 C 24.050781 3.816406 23.910156 3.605469 23.730469 3.421875 C 23.546875 3.238281 23.335938 3.097656 23.097656 3 C 22.855469 2.898438 22.609375 2.851562 22.351562 2.851562 L 4.800781 2.851562 C 4.542969 2.851562 4.292969 2.898438 4.054688 3 C 3.816406 3.097656 3.605469 3.238281 3.421875 3.421875 C 3.238281 3.605469 3.097656 3.816406 3 4.054688 C 2.898438 4.292969 2.851562 4.542969 2.851562 4.800781 L 2.851562 39.898438 C 2.851562 40.160156 2.898438 40.40625 3 40.644531 C 3.097656 40.886719 3.238281 41.097656 3.421875 41.277344 C 3.605469 41.460938 3.816406 41.601562 4.054688 41.703125 C 4.292969 41.800781 4.542969 41.851562 4.800781 41.851562 L 39.898438 41.851562 C 40.160156 41.851562 40.40625 41.800781 40.644531 41.703125 C 40.886719 41.601562 41.097656 41.460938 41.277344 41.277344 C 41.460938 41.097656 41.601562 40.886719 41.703125 40.644531 C 41.800781 40.40625 41.851562 40.160156 41.851562 39.898438 L 41.851562 22.351562 C 41.851562 22.089844 41.800781 21.84375 41.703125 21.605469 C 41.601562 21.363281 41.460938 21.152344 41.277344 20.972656 C 41.097656 20.789062 40.886719 20.648438 40.644531 20.546875 C 40.40625 20.449219 40.160156 20.398438 39.898438 20.398438 Z M 39.898438 20.398438"/></g><g clip-path="url(#b)"><path d="M 40.644531 3 C 40.40625 2.898438 40.160156 2.851562 39.898438 2.851562 L 30.148438 2.851562 C 29.890625 2.851562 29.644531 2.898438 29.402344 3 C 29.164062 3.097656 28.953125 3.238281 28.769531 3.421875 C 28.589844 3.605469 28.449219 3.816406 28.347656 4.054688 C 28.25 4.292969 28.199219 4.542969 28.199219 4.800781 C 28.199219 5.058594 28.25 5.308594 28.347656 5.546875 C 28.449219 5.785156 28.589844 5.996094 28.769531 6.179688 C 28.953125 6.363281 29.164062 6.503906 29.402344 6.601562 C 29.644531 6.699219 29.890625 6.75 30.148438 6.75 L 35.191406 6.75 L 20.972656 20.972656 C 20.785156 21.152344 20.636719 21.363281 20.535156 21.605469 C 20.429688 21.84375 20.378906 22.09375 20.375 22.355469 C 20.375 22.617188 20.421875 22.871094 20.519531 23.113281 C 20.621094 23.355469 20.761719 23.566406 20.945312 23.753906 C 21.132812 23.9375 21.34375 24.078125 21.585938 24.179688 C 21.828125 24.277344 22.082031 24.324219 22.34375 24.324219 C 22.605469 24.320312 22.855469 24.269531 23.09375 24.164062 C 23.335938 24.0625 23.546875 23.917969 23.730469 23.730469 L 37.949219 9.507812 L 37.949219 14.550781 C 37.949219 14.808594 38 15.058594 38.097656 15.296875 C 38.199219 15.535156 38.339844 15.746094 38.519531 15.929688 C 38.703125 16.113281 38.914062 16.253906 39.152344 16.351562 C 39.394531 16.449219 39.640625 16.5 39.898438 16.5 C 40.160156 16.5 40.40625 16.449219 40.644531 16.351562 C 40.886719 16.253906 41.097656 16.113281 41.277344 15.929688 C 41.460938 15.746094 41.601562 15.535156 41.703125 15.296875 C 41.800781 15.058594 41.851562 14.808594 41.851562 14.550781 L 41.851562 4.800781 C 41.847656 4.542969 41.796875 4.292969 41.699219 4.054688 C 41.492188 3.558594 41.140625 3.207031 40.644531 3 Z M 40.644531 3"/></g></svg>