<svg xmlns="http://www.w3.org/2000/svg" width="810" viewBox="0 0 810 810" height="810" version="1.0"><defs><clipPath id="a"><path d="M 28.8125 107.953125 L 788.679688 107.953125 L 788.679688 756.636719 L 28.8125 756.636719 Z M 28.8125 107.953125"/></clipPath></defs><g clip-path="url(#a)"><path fill="#216B39" d="M 788.679688 422.914062 C 788.679688 422.914062 678.980469 492.515625 598.964844 446.710938 C 518.949219 400.910156 465.660156 318.164062 442.753906 322.273438 C 429.511719 324.648438 400.789062 355.859375 397.199219 360.390625 C 393.554688 365.054688 389.117188 370.726562 384.269531 377.414062 C 379.375 384.054688 374.042969 391.695312 368.378906 400.121094 C 365.609375 404.378906 362.632812 408.753906 359.761719 413.410156 C 358.304688 415.722656 356.824219 418.078125 355.320312 420.460938 C 353.871094 422.886719 352.390625 425.339844 350.898438 427.835938 C 347.855469 432.78125 344.988281 438.019531 341.949219 443.304688 C 339.007812 448.636719 336.039062 454.109375 333.117188 459.71875 C 330.292969 465.378906 327.265625 471.050781 324.566406 476.96875 C 323.179688 479.90625 321.78125 482.863281 320.382812 485.835938 C 319.070312 488.847656 317.742188 491.867188 316.417969 494.90625 C 313.683594 500.9375 311.332031 507.183594 308.828125 513.386719 C 307.535156 516.476562 306.484375 519.660156 305.332031 522.804688 L 301.933594 532.269531 L 298.890625 541.839844 C 297.878906 545.03125 296.804688 548.195312 295.972656 551.421875 C 294.246094 557.851562 292.300781 564.195312 290.953125 570.628906 C 290.214844 573.820312 289.476562 577.003906 288.742188 580.175781 C 288.054688 583.347656 287.546875 586.546875 286.949219 589.695312 C 286.382812 592.851562 285.753906 595.984375 285.257812 599.105469 C 284.835938 602.234375 284.421875 605.34375 284.007812 608.433594 C 283.640625 611.515625 283.082031 614.554688 282.878906 617.601562 C 282.636719 620.632812 282.398438 623.644531 282.15625 626.617188 C 281.527344 632.558594 281.5 638.398438 281.347656 644.0625 C 281.320312 646.894531 281.097656 649.6875 281.230469 652.433594 C 281.320312 655.179688 281.410156 657.878906 281.5 660.539062 C 281.589844 663.191406 281.671875 665.804688 281.753906 668.367188 C 281.996094 670.917969 282.238281 673.417969 282.472656 675.871094 C 282.699219 678.316406 282.929688 680.714844 283.148438 683.054688 C 283.273438 684.222656 283.351562 685.382812 283.5 686.515625 C 283.679688 687.65625 283.867188 688.769531 284.046875 689.875 C 284.757812 694.289062 285.429688 698.476562 286.0625 702.40625 C 286.3125 704.382812 286.878906 706.234375 287.257812 708.058594 C 287.679688 709.863281 288.082031 711.609375 288.472656 713.28125 C 289.269531 716.632812 289.902344 719.726562 290.644531 722.476562 C 293.972656 733.371094 295.878906 739.597656 295.878906 739.597656 L 296.125 740.421875 C 298.148438 747.039062 294.425781 754.050781 287.804688 756.082031 C 281.179688 758.105469 274.171875 754.375 272.148438 747.757812 C 272.097656 747.589844 272.039062 747.378906 271.996094 747.210938 C 271.996094 747.210938 270.222656 740.316406 267.121094 728.253906 C 266.457031 725.214844 265.90625 721.808594 265.199219 718.132812 C 264.863281 716.289062 264.507812 714.375 264.144531 712.382812 C 263.820312 710.386719 263.316406 708.347656 263.136719 706.195312 C 262.636719 701.902344 262.113281 697.335938 261.5625 692.519531 C 261.421875 691.320312 261.285156 690.097656 261.140625 688.867188 C 261.035156 687.628906 261 686.371094 260.933594 685.109375 C 260.808594 682.570312 260.675781 679.980469 260.539062 677.328125 C 260.414062 674.683594 260.28125 671.980469 260.152344 669.230469 C 260.179688 666.472656 260.214844 663.667969 260.25 660.824219 C 260.28125 657.96875 260.316406 655.074219 260.359375 652.132812 C 260.359375 649.1875 260.710938 646.21875 260.882812 643.199219 C 261.320312 637.171875 261.644531 630.976562 262.582031 624.710938 C 262.976562 621.574219 263.382812 618.402344 263.792969 615.203125 C 264.152344 611.992188 264.875 608.8125 265.414062 605.578125 C 265.996094 602.359375 266.582031 599.105469 267.167969 595.832031 C 267.84375 592.578125 268.644531 589.324219 269.390625 586.039062 C 270.171875 582.765625 270.855469 579.457031 271.726562 576.167969 C 272.636719 572.898438 273.558594 569.613281 274.476562 566.308594 C 276.195312 559.675781 278.507812 553.175781 280.609375 546.589844 C 281.625 543.289062 282.878906 540.0625 284.066406 536.808594 L 287.671875 527.066406 L 291.609375 517.464844 C 292.949219 514.277344 294.179688 511.050781 295.648438 507.9375 C 298.507812 501.675781 301.214844 495.382812 304.296875 489.324219 C 305.796875 486.277344 307.292969 483.242188 308.777344 480.230469 C 310.347656 477.261719 311.90625 474.304688 313.460938 471.359375 C 316.492188 465.445312 319.84375 459.792969 322.976562 454.164062 C 326.21875 448.589844 329.492188 443.152344 332.722656 437.867188 C 336.058594 432.636719 339.207031 427.453125 342.523438 422.578125 C 344.160156 420.117188 345.769531 417.691406 347.351562 415.308594 C 348.988281 412.953125 350.597656 410.636719 352.175781 408.359375 C 355.300781 403.769531 358.511719 399.480469 361.507812 395.300781 C 367.625 387.03125 373.367188 379.554688 378.621094 373.066406 C 383.828125 366.539062 388.566406 361.003906 392.46875 356.457031 C 395.796875 352.625 398.582031 349.535156 400.6875 347.242188 C 400.6875 347.242188 393.953125 308.816406 383.476562 296.398438 C 365.363281 274.921875 277.246094 304.25 183.996094 280.894531 C 90.75 257.542969 28.8125 111.816406 28.8125 111.816406 C 28.8125 111.816406 100.90625 111.84375 188.125 108.078125 C 300.097656 103.253906 371.894531 244.402344 389.347656 286.121094 C 399.78125 311.074219 404.429688 329.457031 406.480469 340.207031 C 412.683594 333.355469 424.148438 322.40625 442.820312 310.371094 C 474.015625 290.25 589.109375 230.917969 670.921875 311.164062 C 734.644531 373.660156 788.679688 422.914062 788.679688 422.914062"/></g><path fill="#2D9D49" d="M 522.898438 354.863281 C 522.546875 354.144531 522.148438 353.335938 521.710938 352.445312 C 521.242188 351.574219 520.898438 350.558594 520.46875 349.515625 C 520.019531 348.480469 519.652344 347.347656 519.289062 346.164062 C 518.878906 345.003906 518.578125 343.765625 518.265625 342.507812 C 517.914062 341.265625 517.699219 339.96875 517.4375 338.683594 C 516.960938 336.097656 516.636719 333.492188 516.449219 331.035156 C 516.261719 328.582031 516.195312 326.289062 516.207031 324.320312 C 516.214844 320.378906 516.539062 317.789062 516.539062 317.789062 L 515.578125 317.691406 C 515.578125 317.691406 515.316406 320.359375 515.398438 324.324219 C 515.425781 326.316406 515.550781 328.621094 515.792969 331.097656 C 516.042969 333.5625 516.421875 336.179688 516.96875 338.773438 C 517.265625 340.0625 517.5 341.363281 517.886719 342.613281 C 518.230469 343.863281 518.5625 345.101562 518.996094 346.261719 C 519.398438 347.4375 519.785156 348.570312 520.261719 349.597656 C 520.71875 350.640625 521.082031 351.648438 521.574219 352.515625 C 522.03125 353.390625 522.449219 354.191406 522.824219 354.910156 C 523.246094 355.589844 523.617188 356.183594 523.929688 356.671875 C 524.542969 357.648438 524.894531 358.199219 524.894531 358.199219 C 524.894531 358.199219 524.558594 357.640625 523.964844 356.644531 C 523.667969 356.15625 523.308594 355.554688 522.898438 354.863281 Z M 628.441406 427.972656 L 629.089844 427.269531 C 629.105469 427.253906 628.839844 427.414062 628.621094 427.390625 C 628.53125 427.371094 628.453125 427.300781 628.378906 427.210938 C 628.460938 427.296875 628.53125 427.378906 628.550781 427.46875 C 628.574219 427.695312 628.425781 427.988281 628.441406 427.972656 Z M 628.164062 426.992188 C 628.242188 427.066406 628.316406 427.148438 628.378906 427.210938 C 628.316406 427.148438 628.242188 427.066406 628.164062 426.992188 Z M 746.605469 419.453125 C 737.214844 419.054688 723.800781 417.324219 708.324219 412.84375 C 707.269531 412.539062 706.191406 412.191406 705.113281 411.859375 C 705.335938 411.632812 705.605469 411.371094 705.9375 411.03125 C 706.390625 410.574219 706.910156 409.988281 707.65625 409.476562 C 708.386719 408.953125 709.148438 408.28125 710.085938 407.695312 C 711.046875 407.136719 712.0625 406.480469 713.1875 405.886719 C 714.347656 405.351562 715.535156 404.71875 716.828125 404.199219 C 718.140625 403.722656 719.453125 403.109375 720.859375 402.699219 C 722.261719 402.257812 723.671875 401.773438 725.128906 401.429688 C 726.566406 401.019531 728.015625 400.675781 729.453125 400.386719 C 730.886719 400.046875 732.316406 399.8125 733.691406 399.554688 C 736.453125 399.078125 739.050781 398.742188 741.28125 398.507812 C 745.75 398.042969 748.742188 397.96875 748.742188 397.96875 C 748.742188 397.96875 745.75 397.980469 741.269531 398.359375 C 739.03125 398.554688 736.421875 398.835938 733.644531 399.257812 C 732.261719 399.488281 730.820312 399.6875 729.375 400 C 727.925781 400.269531 726.460938 400.585938 725.003906 400.957031 C 723.539062 401.285156 722.105469 401.738281 720.6875 402.160156 C 719.257812 402.539062 717.917969 403.128906 716.585938 403.589844 C 715.257812 404.089844 714.039062 404.710938 712.847656 405.226562 C 711.695312 405.808594 710.644531 406.457031 709.652344 407.011719 C 708.679688 407.589844 707.875 408.269531 707.117188 408.800781 C 706.335938 409.304688 705.785156 409.90625 705.300781 410.367188 C 704.742188 410.914062 704.339844 411.300781 704.085938 411.542969 C 689.699219 407.023438 673.882812 400.082031 658.171875 390.671875 C 657.34375 390.179688 656.523438 389.648438 655.691406 389.144531 C 656.175781 388.496094 657.605469 386.652344 659.949219 384.398438 C 660.660156 383.679688 661.472656 382.949219 662.351562 382.195312 C 663.207031 381.414062 664.207031 380.707031 665.195312 379.914062 C 666.246094 379.214844 667.28125 378.40625 668.429688 377.746094 C 669.566406 377.0625 670.722656 376.355469 671.949219 375.78125 C 672.550781 375.492188 673.152344 375.167969 673.761719 374.890625 C 674.386719 374.644531 675.011719 374.394531 675.625 374.144531 C 676.847656 373.597656 678.109375 373.269531 679.328125 372.894531 C 680.527344 372.472656 681.742188 372.292969 682.875 372.050781 C 683.449219 371.941406 684.003906 371.808594 684.539062 371.726562 C 685.085938 371.671875 685.609375 371.617188 686.121094 371.570312 C 687.128906 371.484375 688.054688 371.332031 688.882812 371.328125 C 689.707031 371.332031 690.433594 371.332031 691.027344 371.339844 C 692.214844 371.347656 692.890625 371.347656 692.890625 371.347656 C 692.890625 371.347656 692.214844 371.328125 691.027344 371.300781 C 690.433594 371.285156 689.707031 371.265625 688.878906 371.242188 C 688.050781 371.230469 687.125 371.355469 686.101562 371.421875 C 685.597656 371.457031 685.066406 371.5 684.519531 371.539062 C 683.972656 371.609375 683.414062 371.734375 682.839844 371.832031 C 681.6875 372.046875 680.460938 372.203125 679.242188 372.597656 C 678.015625 372.949219 676.730469 373.261719 675.488281 373.777344 C 674.859375 374.015625 674.230469 374.257812 673.585938 374.492188 C 672.964844 374.761719 672.359375 375.070312 671.738281 375.355469 C 670.488281 375.898438 669.304688 376.589844 668.136719 377.253906 C 666.957031 377.902344 665.894531 378.691406 664.808594 379.382812 C 663.792969 380.164062 662.765625 380.855469 661.875 381.628906 C 660.96875 382.375 660.128906 383.097656 659.382812 383.8125 C 656.875 386.117188 655.335938 388.046875 654.886719 388.640625 C 647.359375 383.976562 639.878906 378.808594 632.59375 373.164062 C 628.359375 369.972656 624.289062 366.457031 620.167969 362.953125 C 620.179688 362.898438 620.179688 362.871094 620.195312 362.808594 C 620.242188 362.496094 620.355469 362.035156 620.5 361.441406 C 620.671875 360.851562 620.859375 360.132812 621.175781 359.339844 C 621.464844 358.539062 621.867188 357.660156 622.351562 356.722656 C 622.839844 355.796875 623.425781 354.808594 624.132812 353.832031 C 624.496094 353.351562 624.878906 352.859375 625.265625 352.355469 C 625.671875 351.871094 626.140625 351.421875 626.597656 350.9375 C 627.453125 349.921875 628.621094 349.175781 629.664062 348.257812 C 630.851562 347.546875 631.984375 346.675781 633.269531 346.082031 C 634.558594 345.507812 635.804688 344.789062 637.15625 344.429688 C 638.488281 344.015625 639.765625 343.484375 641.09375 343.285156 C 642.40625 343.042969 643.65625 342.710938 644.871094 342.558594 C 646.085938 342.441406 647.238281 342.328125 648.304688 342.234375 C 649.367188 342.089844 650.347656 342.101562 651.21875 342.109375 C 652.089844 342.109375 652.847656 342.109375 653.46875 342.109375 C 654.71875 342.109375 655.429688 342.109375 655.429688 342.109375 C 655.429688 342.109375 654.71875 342.09375 653.46875 342.066406 C 652.847656 342.054688 652.089844 342.039062 651.21875 342.019531 C 650.347656 341.992188 649.359375 341.964844 648.296875 342.082031 C 647.226562 342.164062 646.066406 342.246094 644.84375 342.335938 C 643.621094 342.460938 642.351562 342.773438 641.03125 342.984375 C 639.691406 343.160156 638.386719 343.671875 637.03125 344.058594 C 635.652344 344.402344 634.378906 345.101562 633.054688 345.652344 C 631.734375 346.226562 630.5625 347.082031 629.332031 347.792969 C 628.246094 348.707031 627.039062 349.453125 626.132812 350.46875 C 625.65625 350.953125 625.167969 351.410156 624.734375 351.898438 C 624.324219 352.410156 623.925781 352.90625 623.539062 353.390625 C 622.792969 354.386719 622.164062 355.386719 621.632812 356.339844 C 621.113281 357.292969 620.679688 358.191406 620.367188 359.023438 C 620.015625 359.835938 619.808594 360.589844 619.609375 361.199219 C 619.496094 361.621094 619.414062 361.953125 619.34375 362.253906 C 615.554688 359.035156 611.707031 355.828125 607.632812 352.894531 C 594.179688 342.957031 579.324219 335.101562 564.371094 329.195312 C 564.488281 328.800781 564.695312 328.117188 565.046875 327.128906 C 565.601562 325.582031 566.472656 323.378906 567.75 320.84375 C 569.046875 318.328125 570.726562 315.453125 572.941406 312.683594 C 574.019531 311.28125 575.277344 309.941406 576.601562 308.636719 C 577.964844 307.378906 579.394531 306.128906 580.972656 305.085938 C 582.527344 304.007812 584.191406 303.101562 585.890625 302.335938 C 587.605469 301.609375 589.339844 300.988281 591.070312 300.605469 C 591.933594 300.386719 592.785156 300.207031 593.640625 300.109375 C 594.484375 299.972656 595.3125 299.859375 596.125 299.832031 C 597.757812 299.675781 599.304688 299.75 600.726562 299.777344 C 602.140625 299.9375 603.453125 299.976562 604.585938 300.214844 C 605.734375 300.421875 606.734375 300.539062 607.535156 300.765625 C 609.160156 301.160156 610.085938 301.386719 610.085938 301.386719 C 610.085938 301.386719 609.160156 301.144531 607.550781 300.726562 C 606.75 300.488281 605.742188 300.351562 604.601562 300.125 C 603.46875 299.867188 602.15625 299.8125 600.734375 299.625 C 599.304688 299.585938 597.757812 299.472656 596.113281 299.605469 C 595.292969 299.621094 594.457031 299.722656 593.597656 299.847656 C 592.742188 299.9375 591.878906 300.101562 591.003906 300.308594 C 589.242188 300.664062 587.480469 301.269531 585.734375 301.976562 C 584 302.722656 582.300781 303.621094 580.707031 304.691406 C 579.082031 305.71875 577.617188 306.964844 576.210938 308.222656 C 574.847656 309.527344 573.550781 310.867188 572.429688 312.277344 C 570.140625 315.054688 568.382812 317.933594 567.03125 320.46875 C 564.898438 324.546875 563.828125 327.722656 563.480469 328.859375 C 559.359375 327.253906 555.226562 325.761719 551.125 324.457031 C 536.457031 319.808594 522.113281 316.996094 509.003906 315.34375 C 509.15625 315.09375 509.363281 314.761719 509.632812 314.328125 C 509.921875 313.859375 510.273438 313.285156 510.683594 312.628906 C 511.097656 311.984375 511.519531 311.21875 512.070312 310.453125 C 512.625 309.679688 513.21875 308.84375 513.847656 307.957031 C 514.445312 307.054688 515.15625 306.160156 515.925781 305.257812 C 516.699219 304.359375 517.410156 303.355469 518.300781 302.492188 C 519.183594 301.617188 519.992188 300.636719 520.960938 299.828125 C 521.925781 299.019531 522.808594 298.105469 523.851562 297.421875 C 524.355469 297.054688 524.855469 296.695312 525.351562 296.335938 C 525.847656 296 526.386719 295.722656 526.890625 295.417969 C 527.894531 294.777344 528.96875 294.375 529.953125 293.914062 C 530.980469 293.574219 531.941406 293.195312 532.878906 293.042969 C 533.796875 292.8125 534.667969 292.757812 535.433594 292.691406 C 536.207031 292.683594 536.878906 292.691406 537.429688 292.765625 C 538.535156 292.890625 539.128906 293.117188 539.128906 293.117188 C 539.128906 293.117188 538.542969 292.875 537.4375 292.722656 C 536.886719 292.632812 536.207031 292.613281 535.433594 292.601562 C 534.660156 292.65625 533.785156 292.683594 532.851562 292.898438 C 531.898438 293.027344 530.917969 293.386719 529.875 293.707031 C 528.875 294.148438 527.769531 294.527344 526.746094 295.148438 C 526.230469 295.445312 525.675781 295.714844 525.160156 296.046875 C 524.652344 296.398438 524.144531 296.753906 523.625 297.105469 C 522.554688 297.773438 521.636719 298.671875 520.640625 299.46875 C 519.640625 300.269531 518.804688 301.234375 517.886719 302.097656 C 516.960938 302.957031 516.222656 303.949219 515.421875 304.835938 C 514.625 305.734375 513.886719 306.617188 513.25 307.515625 C 512.597656 308.394531 511.972656 309.222656 511.40625 309.988281 C 510.828125 310.75 510.386719 311.515625 509.949219 312.160156 C 509.53125 312.808594 509.15625 313.375 508.851562 313.84375 C 508.375 314.570312 508.066406 315.046875 507.953125 315.226562 C 504.15625 314.761719 500.453125 314.382812 496.898438 314.105469 C 488.832031 313.449219 481.40625 313.3125 474.839844 313.347656 C 468.273438 313.402344 462.554688 313.6875 457.851562 314.03125 C 448.449219 314.734375 443.140625 315.683594 443.140625 315.683594 C 443.140625 315.683594 448.464844 314.839844 457.871094 314.328125 C 462.574219 314.074219 468.285156 313.90625 474.839844 313.988281 C 481.394531 314.058594 488.78125 314.425781 496.808594 315.128906 C 511.4375 316.441406 528.238281 319.234375 545.585938 324.457031 C 545.566406 324.53125 545.546875 324.609375 545.523438 324.699219 C 545.3125 325.402344 545.089844 326.445312 544.800781 327.765625 C 544.59375 329.097656 544.234375 330.710938 544.089844 332.582031 C 544.003906 333.515625 543.867188 334.507812 543.8125 335.558594 C 543.777344 336.609375 543.734375 337.722656 543.703125 338.875 C 543.617188 340.03125 543.734375 341.230469 543.765625 342.476562 C 543.839844 343.71875 543.804688 345.011719 544.003906 346.316406 C 544.164062 347.636719 544.324219 348.984375 544.488281 350.359375 C 544.65625 351.738281 545.019531 353.113281 545.28125 354.53125 C 545.746094 357.382812 546.753906 360.195312 547.589844 363.105469 C 547.984375 364.570312 548.675781 365.9375 549.210938 367.367188 C 549.808594 368.777344 550.3125 370.234375 550.988281 371.609375 C 551.691406 372.976562 552.402344 374.339844 553.109375 375.691406 C 553.832031 377.039062 554.453125 378.4375 555.332031 379.671875 C 556.152344 380.9375 556.96875 382.195312 557.777344 383.4375 C 558.605469 384.660156 559.316406 385.945312 560.261719 387.039062 C 562.042969 389.28125 563.769531 391.460938 565.414062 393.523438 C 567.230469 395.433594 568.945312 397.234375 570.527344 398.898438 C 571.328125 399.730469 572.085938 400.523438 572.8125 401.277344 C 573.5625 402.003906 574.335938 402.628906 575.027344 403.253906 C 576.4375 404.480469 577.660156 405.554688 578.667969 406.429688 C 580.683594 408.199219 581.835938 409.199219 581.835938 409.199219 C 581.835938 409.199219 580.691406 408.183594 578.695312 406.402344 C 577.695312 405.511719 576.484375 404.425781 575.089844 403.191406 C 574.398438 402.5625 573.640625 401.917969 572.886719 401.195312 C 572.175781 400.433594 571.421875 399.632812 570.636719 398.796875 C 569.066406 397.117188 567.375 395.300781 565.582031 393.378906 C 563.964844 391.308594 562.265625 389.117188 560.503906 386.859375 C 559.570312 385.757812 558.875 384.472656 558.066406 383.246094 C 557.273438 382 556.472656 380.738281 555.664062 379.472656 C 554.800781 378.234375 554.199219 376.832031 553.496094 375.492188 C 552.804688 374.132812 552.113281 372.769531 551.421875 371.410156 C 550.765625 370.035156 550.277344 368.582031 549.703125 367.175781 C 549.183594 365.75 548.507812 364.382812 548.128906 362.925781 C 547.328125 360.03125 546.359375 357.234375 545.925781 354.398438 C 545.675781 352.992188 545.332031 351.621094 545.179688 350.261719 C 545.027344 348.894531 544.882812 347.554688 544.746094 346.253906 C 544.558594 344.957031 544.597656 343.675781 544.542969 342.449219 C 544.523438 341.21875 544.417969 340.03125 544.507812 338.890625 C 544.558594 337.75 544.605469 336.65625 544.65625 335.621094 C 544.714844 334.585938 544.863281 333.605469 544.953125 332.683594 C 545.109375 330.832031 545.484375 329.257812 545.699219 327.953125 C 545.996094 326.652344 546.222656 325.636719 546.429688 324.96875 C 546.457031 324.886719 546.476562 324.816406 546.5 324.734375 C 547.871094 325.15625 549.246094 325.5625 550.628906 326.011719 C 564.953125 330.632812 579.523438 337.074219 593.171875 345.390625 C 593.535156 347.324219 594.488281 352.121094 596.066406 358.484375 C 596.609375 360.5625 597.199219 362.816406 597.820312 365.207031 C 598.523438 367.566406 599.136719 370.097656 599.953125 372.660156 C 600.726562 375.230469 601.535156 377.890625 602.460938 380.5625 C 603.324219 383.25 604.324219 385.9375 605.339844 388.621094 C 606.300781 391.328125 607.488281 393.9375 608.558594 396.550781 C 609.640625 399.15625 610.933594 401.621094 612.066406 404.0625 C 613.28125 406.457031 614.585938 408.710938 615.761719 410.871094 C 617.039062 412.980469 618.34375 414.914062 619.496094 416.726562 C 620.714844 418.5 621.992188 420.007812 623.039062 421.402344 C 624.054688 422.832031 625.167969 423.875 626.03125 424.789062 C 626.902344 425.6875 627.589844 426.398438 628.054688 426.882812 C 628.089844 426.921875 628.125 426.949219 628.164062 426.992188 C 628.125 426.949219 628.101562 426.914062 628.054688 426.875 C 627.589844 426.390625 626.914062 425.679688 626.050781 424.765625 C 625.195312 423.855469 624.089844 422.796875 623.082031 421.367188 C 622.046875 419.964844 620.773438 418.453125 619.574219 416.667969 C 618.433594 414.851562 617.148438 412.910156 615.886719 410.804688 C 614.730469 408.628906 613.441406 406.367188 612.246094 403.972656 C 611.132812 401.523438 609.863281 399.058594 608.800781 396.449219 C 607.75 393.828125 606.574219 391.21875 605.644531 388.503906 C 604.640625 385.820312 603.667969 383.132812 602.824219 380.4375 C 601.914062 377.773438 601.132812 375.113281 600.375 372.535156 C 599.585938 369.964844 598.964844 367.445312 598.328125 365.066406 C 597.757812 362.675781 597.210938 360.417969 596.714844 358.324219 C 595.449219 352.734375 594.640625 348.375 594.242188 346.082031 C 598.441406 348.679688 602.550781 351.4375 606.527344 354.398438 C 615.175781 360.714844 622.902344 368.230469 631.460938 374.628906 C 635.753906 377.925781 640.121094 381.0625 644.511719 384.03125 L 644.492188 384.039062 C 644.492188 384.039062 645.527344 387.867188 647.667969 393.359375 C 648.191406 394.742188 648.792969 396.21875 649.464844 397.773438 C 650.097656 399.34375 650.871094 400.953125 651.625 402.628906 C 652.417969 404.296875 653.261719 406.003906 654.144531 407.722656 C 655.09375 409.414062 655.949219 411.183594 656.984375 412.855469 C 657.984375 414.546875 658.96875 416.253906 660.050781 417.859375 C 661.09375 419.488281 662.15625 421.0625 663.261719 422.542969 C 663.800781 423.28125 664.332031 424.015625 664.859375 424.730469 C 665.410156 425.421875 665.957031 426.101562 666.488281 426.757812 C 667.558594 428.0625 668.53125 429.328125 669.5625 430.382812 C 670.554688 431.46875 671.472656 432.457031 672.28125 433.339844 C 673.152344 434.164062 673.90625 434.882812 674.527344 435.46875 C 675.777344 436.648438 676.488281 437.320312 676.488281 437.320312 C 676.488281 437.320312 675.785156 436.636719 674.554688 435.441406 C 673.945312 434.839844 673.199219 434.113281 672.34375 433.277344 C 671.550781 432.386719 670.652344 431.378906 669.671875 430.28125 C 668.664062 429.214844 667.703125 427.9375 666.660156 426.617188 C 666.140625 425.957031 665.609375 425.269531 665.066406 424.582031 C 664.5625 423.855469 664.035156 423.117188 663.511719 422.363281 C 662.425781 420.878906 661.398438 419.289062 660.382812 417.644531 C 659.324219 416.035156 658.371094 414.320312 657.398438 412.621094 C 656.398438 410.941406 655.570312 409.160156 654.65625 407.46875 C 653.800781 405.738281 652.984375 404.019531 652.21875 402.355469 C 651.496094 400.667969 650.75 399.058594 650.148438 397.492188 C 649.5 395.9375 648.933594 394.449219 648.429688 393.074219 C 647.003906 389.242188 646.113281 386.285156 645.699219 384.8125 C 649.546875 387.382812 653.414062 389.847656 657.296875 392.144531 C 666.019531 397.296875 674.761719 401.765625 683.324219 405.347656 C 683.703125 405.503906 684.078125 405.644531 684.449219 405.796875 L 684.097656 405.976562 C 684.097656 405.976562 684.535156 406.722656 685.300781 408.027344 C 685.492188 408.351562 685.707031 408.710938 685.941406 409.105469 C 686.207031 409.46875 686.496094 409.871094 686.804688 410.292969 C 687.433594 411.136719 688.078125 412.136719 688.933594 413.097656 C 689.777344 414.066406 690.609375 415.191406 691.648438 416.242188 C 692.664062 417.304688 693.683594 418.472656 694.851562 419.570312 C 697.125 421.835938 699.628906 424.164062 702.226562 426.375 C 712.550781 435.34375 723.953125 442.882812 723.953125 442.882812 C 723.953125 442.882812 712.683594 435.136719 702.546875 426.015625 C 699.988281 423.765625 697.539062 421.402344 695.3125 419.117188 C 694.175781 417.996094 693.179688 416.820312 692.191406 415.742188 C 691.183594 414.6875 690.382812 413.5625 689.570312 412.59375 C 688.734375 411.625 688.125 410.632812 687.515625 409.796875 C 687.226562 409.375 686.949219 408.980469 686.695312 408.613281 C 686.472656 408.226562 686.273438 407.875 686.09375 407.558594 C 685.75 406.949219 685.488281 406.480469 685.292969 406.132812 C 693.152344 409.359375 700.8125 411.957031 708.015625 413.941406 C 715.824219 416.089844 723.117188 417.574219 729.636719 418.4375 C 736.15625 419.324219 741.882812 419.703125 746.59375 419.804688 C 756.042969 420 761.378906 419.085938 761.378906 419.085938 C 761.378906 419.085938 756.019531 419.867188 746.605469 419.453125 Z M 168.078125 241.109375 C 167.980469 241.109375 167.878906 241.121094 167.792969 241.121094 C 167.878906 241.113281 167.980469 241.113281 168.078125 241.109375 Z M 167.253906 240.632812 L 167.261719 241.660156 C 167.261719 241.679688 167.34375 241.351562 167.511719 241.191406 C 167.585938 241.136719 167.683594 241.128906 167.792969 241.121094 C 167.683594 241.128906 167.585938 241.128906 167.511719 241.074219 C 167.339844 240.933594 167.253906 240.609375 167.253906 240.632812 Z M 375.347656 278.527344 C 382.605469 285.910156 386.417969 290.4375 386.417969 290.4375 C 386.417969 290.4375 382.515625 285.988281 375.128906 278.753906 C 371.433594 275.132812 366.859375 270.828125 361.464844 266.070312 C 356.078125 261.289062 349.835938 256.09375 342.867188 250.636719 C 331.03125 241.398438 316.921875 231.523438 300.90625 222.585938 C 300.871094 222.640625 300.851562 222.667969 300.808594 222.730469 C 300.59375 223.070312 300.277344 223.503906 299.847656 224.070312 C 299.421875 224.625 298.894531 225.285156 298.246094 226.003906 C 297.617188 226.746094 296.851562 227.519531 296.023438 228.359375 C 294.335938 230.027344 292.238281 231.828125 289.882812 233.597656 C 288.695312 234.46875 287.445312 235.339844 286.160156 236.1875 C 284.835938 236.984375 283.542969 237.875 282.15625 238.601562 C 280.765625 239.332031 279.433594 240.15625 278.023438 240.78125 C 276.625 241.425781 275.296875 242.152344 273.929688 242.691406 C 272.574219 243.25 271.269531 243.789062 270.035156 244.308594 C 268.769531 244.753906 267.574219 245.175781 266.472656 245.570312 C 264.289062 246.398438 262.382812 246.847656 261.089844 247.269531 C 259.777344 247.65625 259.03125 247.878906 259.03125 247.878906 C 259.03125 247.878906 259.773438 247.628906 261.0625 247.195312 C 262.347656 246.726562 264.226562 246.214844 266.382812 245.308594 C 267.457031 244.878906 268.640625 244.417969 269.882812 243.925781 C 271.089844 243.367188 272.375 242.78125 273.695312 242.179688 C 275.035156 241.597656 276.332031 240.832031 277.695312 240.140625 C 279.066406 239.46875 280.359375 238.613281 281.707031 237.839844 C 283.054688 237.074219 284.296875 236.148438 285.574219 235.316406 C 286.808594 234.433594 288.011719 233.542969 289.144531 232.644531 C 291.394531 230.820312 293.378906 228.996094 294.953125 227.316406 C 295.734375 226.476562 296.445312 225.695312 297.023438 224.96875 C 297.617188 224.25 298.101562 223.609375 298.488281 223.070312 C 298.859375 222.53125 299.164062 222.085938 299.324219 221.804688 C 299.351562 221.769531 299.359375 221.757812 299.378906 221.722656 C 297.011719 220.414062 294.605469 219.136719 292.164062 217.886719 C 276.125 209.601562 258.238281 202.492188 239.488281 198.375 C 238.167969 199.785156 235.007812 203.09375 230.542969 207.253906 C 224.5625 212.78125 216.34375 219.9375 207.320312 225.992188 C 205.066406 227.511719 202.78125 228.976562 200.46875 230.316406 C 198.167969 231.683594 195.847656 232.921875 193.570312 234.0625 C 191.28125 235.179688 189.03125 236.160156 186.863281 237.03125 C 185.765625 237.425781 184.699219 237.820312 183.664062 238.191406 C 182.621094 238.515625 181.605469 238.828125 180.632812 239.132812 C 178.671875 239.65625 176.855469 240.113281 175.226562 240.375 C 173.601562 240.714844 172.160156 240.8125 170.984375 240.957031 C 169.804688 241.082031 168.863281 241.066406 168.238281 241.101562 C 168.175781 241.109375 168.132812 241.109375 168.078125 241.109375 C 168.132812 241.109375 168.175781 241.101562 168.238281 241.101562 C 168.863281 241.050781 169.804688 241.066406 170.976562 240.929688 C 172.160156 240.777344 173.597656 240.664062 175.210938 240.3125 C 176.839844 240.042969 178.644531 239.566406 180.605469 239.027344 C 181.574219 238.71875 182.582031 238.398438 183.625 238.066406 C 184.652344 237.6875 185.710938 237.289062 186.800781 236.886719 C 188.960938 236.003906 191.199219 235.007812 193.472656 233.859375 C 195.738281 232.707031 198.042969 231.457031 200.324219 230.082031 C 202.621094 228.71875 204.894531 227.242188 207.125 225.707031 C 211.601562 222.648438 215.882812 219.324219 219.777344 216.054688 C 223.679688 212.808594 227.152344 209.574219 230.054688 206.734375 C 234.039062 202.847656 236.914062 199.738281 238.347656 198.132812 C 234.558594 197.332031 230.746094 196.636719 226.890625 196.089844 C 215.273438 194.238281 203.472656 194.742188 191.78125 193.492188 C 186.136719 192.960938 180.558594 192.226562 175.074219 191.328125 C 174.90625 191.472656 172.132812 193.890625 167.601562 196.882812 C 166.441406 197.664062 165.15625 198.480469 163.78125 199.300781 C 162.429688 200.164062 160.921875 200.941406 159.402344 201.808594 C 157.847656 202.613281 156.246094 203.453125 154.582031 204.226562 C 152.898438 204.96875 151.226562 205.796875 149.472656 206.433594 C 147.738281 207.128906 146 207.792969 144.246094 208.324219 C 143.367188 208.609375 142.503906 208.886719 141.648438 209.160156 C 140.777344 209.382812 139.914062 209.601562 139.070312 209.824219 C 138.222656 210.039062 137.394531 210.246094 136.578125 210.453125 C 135.75 210.605469 134.941406 210.757812 134.152344 210.894531 C 132.578125 211.199219 131.09375 211.476562 129.699219 211.578125 C 128.3125 211.722656 127.035156 211.855469 125.90625 211.964844 C 124.777344 211.992188 123.789062 212.015625 122.972656 212.035156 C 121.34375 212.070312 120.417969 212.089844 120.417969 212.089844 C 120.417969 212.089844 121.34375 212.050781 122.972656 211.988281 C 123.78125 211.960938 124.769531 211.917969 125.902344 211.875 C 127.027344 211.738281 128.289062 211.585938 129.679688 211.421875 C 131.066406 211.296875 132.546875 210.992188 134.105469 210.667969 C 134.886719 210.507812 135.695312 210.34375 136.507812 210.183594 C 137.316406 209.960938 138.144531 209.734375 138.988281 209.507812 C 139.824219 209.277344 140.679688 209.042969 141.535156 208.808594 C 142.386719 208.519531 143.242188 208.222656 144.105469 207.925781 C 145.847656 207.371094 147.566406 206.675781 149.277344 205.957031 C 151.011719 205.292969 152.664062 204.441406 154.320312 203.675781 C 155.957031 202.882812 157.53125 202.015625 159.066406 201.195312 C 160.558594 200.304688 162.035156 199.507812 163.367188 198.632812 C 164.722656 197.789062 165.976562 196.960938 167.109375 196.164062 C 170.398438 193.90625 172.710938 192.011719 173.769531 191.109375 C 168.394531 190.195312 163.117188 189.117188 157.96875 187.859375 C 147.785156 185.386719 138.105469 182.3125 129.105469 178.78125 L 129.277344 179.136719 C 129.277344 179.136719 128.484375 179.453125 127.082031 180.003906 C 126.398438 180.324219 125.519531 180.558594 124.511719 180.800781 C 123.503906 181.070312 122.378906 181.378906 121.113281 181.546875 C 119.859375 181.753906 118.503906 182.007812 117.054688 182.113281 C 115.609375 182.257812 114.085938 182.417969 112.503906 182.453125 C 110.929688 182.546875 109.292969 182.589844 107.632812 182.570312 C 105.976562 182.597656 104.292969 182.542969 102.605469 182.484375 C 89.125 182.050781 75.859375 179.675781 75.859375 179.675781 C 75.859375 179.675781 89.171875 181.800781 102.621094 181.976562 C 104.296875 181.996094 105.976562 182.023438 107.628906 181.960938 C 109.277344 181.945312 110.902344 181.871094 112.46875 181.753906 C 114.035156 181.683594 115.542969 181.503906 116.964844 181.324219 C 118.402344 181.199219 119.726562 180.917969 120.957031 180.695312 C 122.199219 180.511719 123.289062 180.179688 124.265625 179.902344 C 125.238281 179.644531 126.085938 179.398438 126.738281 179.085938 C 127.386719 178.816406 127.890625 178.601562 128.25 178.457031 C 127.980469 178.355469 127.695312 178.25 127.433594 178.148438 C 117.964844 174.359375 109.269531 170.167969 101.5 165.847656 C 85.941406 157.207031 74.167969 148.078125 66.390625 141.265625 C 58.59375 134.433594 54.753906 129.910156 54.753906 129.910156 C 54.753906 129.910156 58.703125 134.339844 66.636719 140.976562 C 74.539062 147.625 86.550781 156.316406 102.09375 164.765625 C 103.945312 165.765625 105.867188 166.753906 107.828125 167.734375 C 107.746094 167.382812 107.65625 166.984375 107.539062 166.484375 C 107.363281 165.71875 107.183594 164.792969 106.785156 163.769531 C 106.40625 162.746094 106.066406 161.558594 105.535156 160.328125 C 104.96875 159.105469 104.410156 157.757812 103.726562 156.378906 C 102.980469 155.023438 102.253906 153.558594 101.390625 152.109375 C 100.484375 150.683594 99.636719 149.152344 98.621094 147.699219 C 97.613281 146.234375 96.632812 144.722656 95.535156 143.285156 C 93.421875 140.363281 91.136719 137.558594 88.953125 134.972656 C 86.761719 132.382812 84.628906 130.046875 82.773438 128.070312 C 79.050781 124.132812 76.390625 121.675781 76.390625 121.675781 C 76.390625 121.675781 79.089844 124.085938 82.890625 127.960938 C 84.78125 129.902344 86.957031 132.210938 89.195312 134.757812 C 91.433594 137.308594 93.773438 140.078125 95.941406 142.980469 C 97.074219 144.398438 98.089844 145.902344 99.125 147.355469 C 100.175781 148.796875 101.058594 150.324219 101.992188 151.75 C 102.890625 153.191406 103.648438 154.65625 104.429688 156.011719 C 105.148438 157.398438 105.742188 158.761719 106.335938 159.992188 C 106.902344 161.234375 107.269531 162.441406 107.667969 163.480469 C 108.097656 164.507812 108.304688 165.460938 108.492188 166.242188 C 108.738281 167.238281 108.90625 167.921875 109 168.316406 C 123.214844 175.328125 139.984375 181.675781 158.394531 186.078125 C 159.804688 186.417969 161.242188 186.707031 162.671875 187.019531 C 162.550781 185.976562 162.1875 183.226562 161.269531 179.523438 C 160.992188 178.339844 160.632812 177.0625 160.230469 175.722656 C 159.859375 174.382812 159.339844 172.992188 158.863281 171.550781 C 158.292969 170.132812 157.792969 168.632812 157.109375 167.183594 C 156.453125 165.71875 155.804688 164.226562 155.019531 162.796875 L 153.886719 160.632812 C 153.464844 159.941406 153.050781 159.25 152.636719 158.558594 C 151.847656 157.15625 150.921875 155.878906 150.046875 154.628906 C 149.210938 153.34375 148.25 152.21875 147.367188 151.132812 C 146.921875 150.585938 146.496094 150.054688 146.074219 149.542969 C 145.625 149.066406 145.183594 148.605469 144.761719 148.164062 C 143.90625 147.285156 143.160156 146.449219 142.433594 145.765625 C 141.6875 145.101562 141.039062 144.527344 140.507812 144.050781 C 139.4375 143.105469 138.824219 142.566406 138.824219 142.566406 C 138.824219 142.566406 139.445312 143.097656 140.535156 144.023438 C 141.082031 144.488281 141.742188 145.046875 142.496094 145.695312 C 143.234375 146.367188 144.003906 147.1875 144.878906 148.050781 C 145.308594 148.488281 145.757812 148.941406 146.226562 149.414062 C 146.65625 149.917969 147.097656 150.441406 147.546875 150.972656 C 148.457031 152.050781 149.445312 153.164062 150.308594 154.4375 C 151.210938 155.679688 152.171875 156.949219 152.996094 158.339844 C 153.421875 159.023438 153.859375 159.714844 154.285156 160.40625 L 155.472656 162.554688 C 156.289062 163.984375 156.980469 165.46875 157.664062 166.933594 C 158.382812 168.386719 158.914062 169.882812 159.519531 171.300781 C 160.03125 172.75 160.578125 174.140625 160.992188 175.496094 C 161.414062 176.835938 161.808594 178.113281 162.109375 179.308594 C 163.25 183.527344 163.652344 186.605469 163.726562 187.246094 C 172.851562 189.195312 182.3125 190.644531 191.960938 191.515625 C 194.847656 191.722656 197.726562 192 200.648438 192.144531 C 202.769531 192.234375 204.886719 192.316406 207.015625 192.40625 C 207.035156 192.351562 207.050781 192.316406 207.070312 192.253906 C 207.195312 191.910156 207.332031 191.355469 207.519531 190.667969 C 207.65625 189.953125 207.863281 189.105469 207.960938 188.097656 C 208.128906 187.101562 208.140625 185.960938 208.203125 184.71875 C 208.15625 183.472656 208.175781 182.121094 207.953125 180.703125 C 207.84375 179.273438 207.484375 177.808594 207.152344 176.28125 C 206.753906 174.777344 206.277344 173.222656 205.695312 171.6875 C 205.019531 170.1875 204.480469 168.59375 203.617188 167.15625 C 202.824219 165.683594 202.054688 164.191406 201.082031 162.851562 C 200.15625 161.488281 199.300781 160.101562 198.257812 158.914062 C 197.257812 157.710938 196.359375 156.472656 195.371094 155.417969 C 194.371094 154.375 193.421875 153.394531 192.554688 152.480469 C 191.703125 151.542969 190.832031 150.78125 190.066406 150.105469 C 189.300781 149.425781 188.628906 148.832031 188.085938 148.34375 C 186.988281 147.359375 186.359375 146.800781 186.359375 146.800781 C 186.359375 146.800781 186.992188 147.347656 188.113281 148.308594 C 188.671875 148.785156 189.347656 149.363281 190.128906 150.035156 C 190.917969 150.699219 191.800781 151.445312 192.664062 152.363281 C 193.554688 153.261719 194.523438 154.230469 195.542969 155.257812 C 196.550781 156.292969 197.476562 157.515625 198.511719 158.710938 C 199.582031 159.886719 200.476562 161.261719 201.429688 162.621094 C 202.4375 163.949219 203.238281 165.441406 204.074219 166.914062 C 204.972656 168.351562 205.550781 169.953125 206.261719 171.460938 C 206.882812 173.007812 207.394531 174.574219 207.835938 176.101562 C 208.203125 177.648438 208.597656 179.148438 208.734375 180.605469 C 208.992188 182.050781 208.996094 183.4375 209.074219 184.71875 C 209.03125 185.996094 209.039062 187.171875 208.894531 188.207031 C 208.804688 189.25 208.609375 190.140625 208.480469 190.878906 C 208.3125 191.550781 208.195312 192.0625 208.070312 192.457031 C 208.527344 192.46875 208.984375 192.488281 209.4375 192.511719 C 215.363281 192.710938 221.296875 193.257812 227.175781 194.121094 C 243.105469 196.433594 258.550781 201.085938 272.960938 207.019531 C 273.066406 206.523438 273.226562 205.75 273.398438 204.65625 C 273.695312 202.75 274.035156 200.007812 274.128906 196.691406 C 274.242188 193.382812 274.089844 189.5 273.488281 185.394531 C 273.183594 183.347656 272.769531 181.242188 272.203125 179.140625 C 271.679688 177.027344 270.933594 174.941406 270.132812 172.882812 C 269.289062 170.832031 268.335938 168.835938 267.246094 166.949219 C 266.152344 165.0625 264.980469 163.257812 263.695312 161.621094 C 263.066406 160.800781 262.4375 159.992188 261.753906 159.257812 C 261.089844 158.511719 260.457031 157.757812 259.757812 157.109375 C 258.4375 155.734375 257.058594 154.566406 255.800781 153.484375 C 254.476562 152.480469 253.292969 151.5 252.15625 150.765625 C 251.015625 150.042969 250.070312 149.332031 249.207031 148.875 C 247.519531 147.90625 246.554688 147.355469 246.554688 147.355469 C 246.554688 147.355469 247.527344 147.894531 249.226562 148.832031 C 250.097656 149.28125 251.054688 149.980469 252.210938 150.691406 C 253.363281 151.402344 254.558594 152.371094 255.898438 153.359375 C 257.183594 154.429688 258.585938 155.574219 259.929688 156.9375 C 260.636719 157.585938 261.285156 158.324219 261.96875 159.070312 C 262.664062 159.796875 263.300781 160.597656 263.949219 161.421875 C 265.269531 163.050781 266.476562 164.847656 267.605469 166.734375 C 268.730469 168.621094 269.722656 170.628906 270.601562 172.683594 C 271.445312 174.746094 272.230469 176.847656 272.789062 178.976562 C 273.398438 181.097656 273.847656 183.21875 274.183594 185.289062 C 274.847656 189.429688 275.0625 193.355469 274.992188 196.710938 C 274.910156 202.191406 274.183594 206.140625 273.921875 207.414062 C 280.503906 210.15625 286.871094 213.160156 292.964844 216.339844 C 305.683594 223.019531 317.265625 230.398438 327.617188 237.769531 C 327.839844 236.6875 328.152344 234.992188 328.433594 232.839844 C 328.660156 230.945312 328.925781 228.726562 329.027344 226.34375 C 329.171875 223.960938 329.160156 221.410156 329.070312 218.859375 C 328.957031 217.589844 328.910156 216.3125 328.75 215.066406 C 328.566406 213.832031 328.480469 212.589844 328.210938 211.425781 C 327.957031 210.257812 327.8125 209.097656 327.472656 208.054688 C 327.15625 207.003906 326.933594 205.984375 326.589844 205.09375 C 326.25 204.195312 325.941406 203.371094 325.664062 202.640625 C 325.375 201.921875 325.035156 201.328125 324.792969 200.820312 C 324.296875 199.8125 324.007812 199.238281 324.007812 199.238281 C 324.007812 199.238281 324.316406 199.800781 324.863281 200.789062 C 325.125 201.285156 325.492188 201.859375 325.816406 202.578125 C 326.128906 203.296875 326.472656 204.109375 326.851562 204.996094 C 327.238281 205.878906 327.5 206.894531 327.867188 207.945312 C 328.253906 208.988281 328.449219 210.140625 328.757812 211.308594 C 329.082031 212.484375 329.222656 213.726562 329.460938 214.976562 C 329.675781 216.230469 329.78125 217.515625 329.945312 218.800781 C 330.152344 221.371094 330.277344 223.960938 330.238281 226.378906 C 330.238281 228.804688 330.070312 231.0625 329.917969 232.996094 C 329.671875 235.824219 329.332031 237.945312 329.171875 238.890625 C 334.261719 242.558594 339.082031 246.21875 343.542969 249.777344 C 350.484375 255.3125 356.597656 260.695312 361.914062 265.566406 C 367.226562 270.441406 371.722656 274.835938 375.347656 278.527344"/></svg>